<svg id="Capa_1" enable-background="new 0 0 512 512" height="512" viewBox="0 0 512 512" width="512" xmlns="http://www.w3.org/2000/svg"><g><path d="m278.787 15.227c-17.379-6.035-92.328 75.364-77.841 139.025l34.048 1.764c48.007-21.356 55.324-136.785 43.793-140.789z" fill="#ebe1dc"/><path d="m512 236.98c.076-14.988-15.524-22.404-29.265-24.45-7.254-1.08-14.623-1.331-21.936-.79-3.462.256-5.51-3.76-3.253-6.398 7.549-8.823 13.523-16.77 16.016-21.088 8.401-14.551 3.415-33.156-11.135-41.557-14.551-8.401-33.156-3.415-41.557 11.135-2.493 4.318-6.388 13.465-10.254 24.414-1.156 3.273-5.658 3.508-7.167.382-3.188-6.603-7.09-12.86-11.652-18.602-8.643-10.877-22.865-20.679-35.807-13.119-3.912 2.285-6.888 5.895-8.726 10.036-4.46 10.048-2.773 20.827-.25 31.017 5.442 21.98 14.82 42.98 27.553 61.704l39.157 22.607c22.582 1.665 45.457-.714 67.214-6.991 10.086-2.91 20.265-6.839 26.737-15.725 2.664-3.662 4.302-8.044 4.325-12.575z" fill="#94d4a2"/><path d="m497.619 217.004c.004.175.015.346.014.523-.023 4.531-1.661 8.912-4.328 12.575-6.472 8.887-16.65 12.815-26.737 15.725-21.756 6.277-44.631 8.656-67.214 6.991l-35.167-20.304c3.159 5.891 6.618 11.622 10.377 17.15l39.157 22.607c22.582 1.665 45.457-.714 67.214-6.991 10.086-2.91 20.265-6.839 26.737-15.725 2.667-3.662 4.305-8.044 4.328-12.575.048-9.537-6.253-16.003-14.381-19.976z" fill="#6dc17d"/><path d="m431.384 338.12c5.519-5.03 10.374-10.976 14.307-17.788 20.524-35.549 8.344-81.005-27.205-101.529s-81.005-8.344-101.529 27.205c-3.933 6.813-6.655 13.991-8.252 21.286-33.7 143.08-33.721 143.194-42.198 179.159-1.833 7.776 1.521 16.152 8.796 20.351s16.202 2.915 22.02-2.56c26.908-25.323 26.999-25.397 134.061-126.124z" fill="#e27c48"/><path d="m422.082 221.026c10.426 21.303 9.444 49.562-4.875 74.364-4.07 7.049-8.925 13.298-14.326 18.681-104.995 107.561-105.081 107.642-131.471 134.683-1.591 1.63-3.386 2.938-5.279 3.918.607 5.702 3.825 11.046 9.171 14.133 7.275 4.2 16.202 2.915 22.02-2.56 26.908-25.323 26.999-25.398 134.062-126.124 5.519-5.03 10.374-10.976 14.307-17.788 19.814-34.321 9.14-77.868-23.609-99.307z" fill="#dd552d"/><ellipse cx="29.694" cy="405.5" fill="#ebe1dc" rx="29.694" ry="29.694" transform="matrix(.995 -.099 .099 .995 -39.812 4.899)"/><path d="m377.926 59.654c-13.711-16.204-125.982 28.113-151.221 76.46-43.277-1.646-80.775 30.838-84.818 74.482-4.183 45.159 29.035 85.159 74.194 89.342 47.311 4.382 101.74 1.772 116.378-38.91 9.037-25.114-4.402-72.615-41.308-101.335 62.296-22.486 97.042-87.905 86.775-100.039z" fill="#f7f3f1"/><path d="m321.643 232.603c-8.891 42.311-62.441 52.4-109.904 54.581-17.604.809-34.154-4.006-47.95-12.831 13.245 14.124 31.496 23.659 52.293 25.585 47.311 4.383 101.74 1.772 116.378-38.91 8.107-22.531-1.891-63.071-30.679-91.913 16.356 21.77 23.409 46.61 19.862 63.488z" fill="#ebe1dc"/><path d="m312.781 349.474c-65.402-10.168-86.847-63.269-86.847-63.269l-63.737-27.116c-178.349 64.873-123.551 238.001-32.673 238.001h174.207c4.998 0 9.05-4.052 9.05-9.05v-11.954c0-24.094-19.532-43.626-43.627-43.626h-28.809c2.295-6.259 3.547-13.021 3.547-20.076 0-12.194-3.747-23.51-10.146-32.87 17.717 5.033 39.116 10.449 56.356 12.82 43.723 6.011 52.16-38.277 22.679-42.86z" fill="#f7f3f1"/><path d="m324.862 355.126c-6.4 5.898-14.596 10.035-23.062 12.304-13.223 3.543-27.162 3.099-40.816 2.102-20.902-1.527-41.714-4.292-62.29-8.275 6.793 19.352 25.155 34.775 44.579 42.645-1.306-8.949-4.639-17.24-9.525-24.388 17.717 5.033 39.117 10.449 56.356 12.82 35.999 4.949 48.071-24.198 34.758-37.208z" fill="#ebe1dc"/><path d="m260.908 212.971c-.975 0-1.966-.186-2.925-.578-3.949-1.617-5.839-6.128-4.222-10.077l3.098-7.566c1.617-3.948 6.125-5.84 10.077-4.222 3.949 1.617 5.839 6.128 4.222 10.077l-3.098 7.566c-1.223 2.989-4.108 4.8-7.152 4.8z" fill="#655e67"/><path d="m369.767 93.611c-13.761 23.619-41.224 52.576-78.615 66.082-2.314-1.804-4.718-3.532-7.217-5.177-4.24-2.79-5.721-8.296-3.359-12.789 15.543-29.575 44.43-50.451 89.191-48.116z" fill="#df646e"/><path d="m269.155 432.46h-28.809c2.638-7.197 3.899-15.058 3.462-23.266-1.591-29.867-26.094-53.961-55.981-55.094-7.252-.275-14.22.78-20.688 2.932 25.589 10.184 45.711 44.555 45.711 71.68 0 2.822-.2 5.597-.588 8.311-.889 6.233 4.093 11.764 10.388 11.764h15.461c24.094 0 43.626 19.532 43.626 43.626v4.676h21.993c4.998 0 9.05-4.052 9.05-9.05v-11.954c.001-24.093-19.531-43.625-43.625-43.625z" fill="#ebe1dc"/></g></svg>