<svg width="50" height="50" viewBox="0 0 50 50" fill="none" xmlns="http://www.w3.org/2000/svg">
<g clip-path="url(#clip0)">
<path d="M34.5228 30.1447C29.8674 34.8002 5.46039 51.6592 0.804829 47.0037C-3.85063 42.3482 13.0083 17.9411 17.6638 13.2857C22.3192 8.6302 29.8673 8.6302 34.5227 13.2857C39.1782 17.9411 39.1783 25.4893 34.5228 30.1447Z" fill="url(#paint0_linear)"/>
<path d="M30.6989 31.6624C30.5107 31.6624 30.3225 31.5907 30.179 31.4471L24.8318 26.0999C24.5447 25.8127 24.5447 25.3472 24.8318 25.06C25.1189 24.773 25.5845 24.773 25.8716 25.06L31.2188 30.4072C31.5059 30.6944 31.5059 31.1599 31.2188 31.4471C31.0752 31.5907 30.8871 31.6624 30.6989 31.6624Z" fill="#FF5D00"/>
<path d="M26.3265 34.9534C26.1383 34.9534 25.9501 34.8816 25.8066 34.7381L20.8093 29.7408C20.5222 29.4536 20.5222 28.9881 20.8093 28.7009C21.0964 28.4138 21.5621 28.4138 21.8492 28.7009L26.8464 33.6981C27.1335 33.9853 27.1335 34.4509 26.8464 34.7381C26.7029 34.8816 26.5147 34.9534 26.3265 34.9534Z" fill="#FF5D00"/>
<path d="M21.7711 38.0612C21.5829 38.0612 21.3948 37.9894 21.2512 37.8459L16.7214 33.3161C16.4343 33.0289 16.4343 32.5634 16.7214 32.2762C17.0085 31.9892 17.4742 31.9892 17.7613 32.2762L22.291 36.8059C22.5782 37.0932 22.5782 37.5587 22.291 37.8459C22.1475 37.9893 21.9593 38.0612 21.7711 38.0612Z" fill="#FF5D00"/>
<path d="M17.048 41.0013C16.8599 41.0013 16.6717 40.9295 16.5281 40.786L12.5757 36.8335C12.2886 36.5463 12.2886 36.0808 12.5757 35.7936C12.8628 35.5065 13.3284 35.5065 13.6155 35.7936L17.568 39.746C17.8551 40.0332 17.8551 40.4988 17.568 40.786C17.4244 40.9295 17.2363 41.0013 17.048 41.0013Z" fill="#FF5D00"/>
<path d="M12.1115 43.7277C11.9233 43.7277 11.7352 43.6559 11.5916 43.5123L8.35254 40.2734C8.06543 39.9862 8.06543 39.5207 8.35254 39.2334C8.63965 38.9464 9.10527 38.9464 9.39238 39.2334L12.6314 42.4724C12.9186 42.7596 12.9186 43.2251 12.6314 43.5123C12.4878 43.6559 12.2996 43.7277 12.1115 43.7277Z" fill="#FF5D00"/>
<path d="M6.80849 46.0862C6.62031 46.0862 6.43212 46.0145 6.28857 45.8709L4.00146 43.5839C3.71436 43.2967 3.71436 42.8312 4.00146 42.5439C4.28857 42.2568 4.7542 42.2568 5.04131 42.5439L7.32831 44.831C7.61542 45.1182 7.61542 45.5837 7.32831 45.8709C7.18486 46.0145 6.99658 46.0862 6.80849 46.0862Z" fill="#FF5D00"/>
<path d="M19.3382 18.9687C19.995 18.9687 20.5274 18.4363 20.5274 17.7795C20.5274 17.1227 19.995 16.5902 19.3382 16.5902C18.6814 16.5902 18.1489 17.1227 18.1489 17.7795C18.1489 18.4363 18.6814 18.9687 19.3382 18.9687Z" fill="#FF5D00"/>
<path d="M20.9069 19.9432C21.2356 19.9432 21.502 19.6767 21.502 19.348C21.502 19.0194 21.2356 18.7529 20.9069 18.7529C20.5782 18.7529 20.3118 19.0194 20.3118 19.348C20.3118 19.6767 20.5782 19.9432 20.9069 19.9432Z" fill="#FF5D00"/>
<path d="M13.1706 26.706C13.4992 26.706 13.7657 26.4395 13.7657 26.1109C13.7657 25.7822 13.4992 25.5157 13.1706 25.5157C12.8419 25.5157 12.5754 25.7822 12.5754 26.1109C12.5754 26.4395 12.8419 26.706 13.1706 26.706Z" fill="#FF5D00"/>
<path d="M14.7282 30.6C15.0568 30.6 15.3233 30.3336 15.3233 30.0049C15.3233 29.6762 15.0568 29.4098 14.7282 29.4098C14.3995 29.4098 14.1331 29.6762 14.1331 30.0049C14.1331 30.3336 14.3995 30.6 14.7282 30.6Z" fill="#FF5D00"/>
<path d="M16.2863 27.6579C16.615 27.6579 16.8814 27.3914 16.8814 27.0628C16.8814 26.7341 16.615 26.4677 16.2863 26.4677C15.9576 26.4677 15.6912 26.7341 15.6912 27.0628C15.6912 27.3914 15.9576 27.6579 16.2863 27.6579Z" fill="#FF5D00"/>
<path d="M34.5228 13.2857C33.0935 11.8563 31.3913 10.8666 29.584 10.3149V34.2007C31.8228 32.5343 33.5789 31.0887 34.5228 30.1447C39.1783 25.4892 39.1783 17.9412 34.5228 13.2857Z" fill="url(#paint1_linear)"/>
<path d="M34.456 12.0287C35.5518 9.8084 35.3811 7.14532 33.9299 5.13917C33.3298 4.30948 32.4836 3.5462 31.2918 3.00919C26.8424 1.00392 24.479 5.70635 27.5894 7.9627C30.6998 10.219 32.1664 16.668 32.1664 16.668L34.456 12.0287Z" fill="url(#paint2_linear)"/>
<path d="M36.5469 15.6558C38.4346 14.956 40.5835 15.3999 41.9732 16.8566C42.4902 17.3985 42.9301 18.1009 43.1841 19.011C44.2 22.6511 40.3244 23.9116 38.96 21.2672C37.5957 18.6228 33.2593 16.8746 33.2593 16.8746L36.5469 15.6558Z" fill="url(#paint3_linear)"/>
<path d="M44.172 9.49824C42.5788 11.3492 34.0172 18.2609 32.1663 16.6677C30.3153 15.0744 35.876 5.5795 37.4692 3.72862C39.0624 1.87775 41.8544 1.66886 43.7053 3.26202C45.5562 4.85518 45.7653 7.64736 44.172 9.49824Z" fill="url(#paint4_linear)"/>
<path d="M40.1451 11.5209C40.1451 11.5209 45.3167 7.60471 48.6884 10.8247C52.0602 14.0447 48.3233 18.8781 44.3386 17.3548C40.354 15.8314 33.3687 16.8095 33.3687 16.8095L40.1451 11.5209Z" fill="url(#paint5_linear)"/>
</g>
<defs>
<linearGradient id="paint0_linear" x1="16.4416" y1="28.9233" x2="23.611" y2="36.0927" gradientUnits="userSpaceOnUse">
<stop stop-color="#FF931E"/>
<stop offset="0.569" stop-color="#FF760E"/>
<stop offset="1" stop-color="#FF5D00"/>
</linearGradient>
<linearGradient id="paint1_linear" x1="31.1237" y1="30.2935" x2="34.6569" y2="12.1998" gradientUnits="userSpaceOnUse">
<stop stop-color="#FF931E" stop-opacity="0"/>
<stop offset="1" stop-color="#FF5D00"/>
</linearGradient>
<linearGradient id="paint2_linear" x1="29.9882" y1="8.15527" x2="34.044" y2="11.6464" gradientUnits="userSpaceOnUse">
<stop stop-color="#9EB644"/>
<stop offset="1" stop-color="#738611"/>
</linearGradient>
<linearGradient id="paint3_linear" x1="39.2932" y1="19.4506" x2="37.1697" y2="16.0586" gradientUnits="userSpaceOnUse">
<stop stop-color="#9EB644"/>
<stop offset="1" stop-color="#738611"/>
</linearGradient>
<linearGradient id="paint4_linear" x1="37.4487" y1="9.5472" x2="40.2997" y2="12.0011" gradientUnits="userSpaceOnUse">
<stop stop-color="#9EB644"/>
<stop offset="1" stop-color="#738611"/>
</linearGradient>
<linearGradient id="paint5_linear" x1="40.8881" y1="11.9156" x2="43.0165" y2="20.2096" gradientUnits="userSpaceOnUse">
<stop stop-color="#9EB644"/>
<stop offset="1" stop-color="#738611"/>
</linearGradient>
<clipPath id="clip0">
<rect width="50" height="50" fill="white"/>
</clipPath>
</defs>
</svg>
