<svg width="90" height="40" viewBox="0 0 90 40" fill="none" xmlns="http://www.w3.org/2000/svg">
<path d="M8.496 31.896H21.552C22.608 31.896 23.376 32.024 23.856 32.28C24.336 32.504 24.656 32.872 24.816 33.384C24.976 33.896 25.056 34.584 25.056 35.448C25.056 36.28 24.976 36.9521 24.816 37.4641C24.656 37.9761 24.384 38.3281 24 38.5201C23.392 38.8401 22.56 39 21.504 39H4.224C1.984 39 0.672 38.392 0.288 37.176C0.0960001 36.664 0 35.8481 0 34.7281V8.04005C0 7.30405 0.016 6.76005 0.048 6.40805C0.112 6.02405 0.272 5.59205 0.528 5.11205C0.976 4.24805 2.224 3.81605 4.272 3.81605C6.512 3.81605 7.84 4.40805 8.256 5.59205C8.416 6.13605 8.496 6.96805 8.496 8.08805V31.896Z" fill="#FF931E"/>
<path d="M55.2863 26.328L61.6702 31.608C62.4703 32.28 62.9662 32.7921 63.1582 33.1441C63.3822 33.4961 63.4943 33.832 63.4943 34.1521C63.4943 34.92 62.9982 35.96 62.0062 37.272C60.9182 38.616 59.9583 39.288 59.1263 39.288C58.4223 39.288 57.4462 38.824 56.1982 37.896L55.7183 37.5601C54.9823 36.9521 53.8462 35.896 52.3102 34.392C50.7742 32.856 49.6063 31.768 48.8063 31.128V34.8241C48.8063 35.5601 48.7743 36.1201 48.7103 36.5041C48.6783 36.8561 48.5343 37.272 48.2783 37.752C47.8623 38.584 46.6303 39 44.5823 39C42.5663 39 41.3343 38.568 40.8863 37.704C40.6623 37.224 40.5182 36.8081 40.4542 36.4561C40.4222 36.0721 40.4062 35.5121 40.4062 34.7761V6.02405C40.4062 5.28805 40.4222 4.74405 40.4542 4.39205C40.5182 4.00805 40.6623 3.57605 40.8863 3.09605C41.3343 2.23205 42.5822 1.80005 44.6302 1.80005C46.1662 1.80005 47.2542 2.07205 47.8942 2.61605C48.4382 3.06405 48.7262 3.76805 48.7582 4.72805C48.7902 5.01605 48.8063 5.46405 48.8063 6.07205V21.288C49.3823 20.808 50.2463 19.9921 51.3983 18.84C52.5823 17.688 53.4623 16.872 54.0383 16.392L54.6143 16.008C55.7343 15.144 56.6943 14.712 57.4943 14.712C58.2943 14.712 59.2062 15.368 60.2302 16.68C61.2862 17.96 61.8143 18.968 61.8143 19.704C61.8143 20.44 61.2223 21.3041 60.0383 22.2961L55.2863 26.328Z" fill="#FF931E"/>
<path d="M81.1035 16.392C81.2955 14.6 82.5595 13.704 84.8955 13.704C86.1435 13.704 87.0715 13.8 87.6795 13.992C88.2875 14.184 88.7035 14.52 88.9275 15.0001C89.1835 15.4801 89.3275 15.9121 89.3595 16.2961C89.4235 16.6481 89.4555 17.1921 89.4555 17.9281V34.7281C89.4555 35.4641 89.4235 36.0241 89.3595 36.4081C89.3275 36.7601 89.1995 37.176 88.9755 37.656C88.5275 38.488 87.4235 38.904 85.6635 38.904C83.9355 38.904 82.7675 38.696 82.1595 38.28C81.5835 37.832 81.2475 37.1921 81.1515 36.3601C79.9675 38.0561 77.9835 38.904 75.1995 38.904C72.4475 38.904 69.8875 37.64 67.5195 35.112C65.1515 32.584 63.9675 29.656 63.9675 26.328C63.9675 22.968 65.1515 20.04 67.5195 17.544C69.9195 15.016 72.5435 13.752 75.3915 13.752C76.4795 13.752 77.4715 13.944 78.3675 14.328C79.2635 14.712 79.8875 15.08 80.2395 15.432C80.5915 15.752 80.8795 16.072 81.1035 16.392ZM72.3675 26.376C72.3675 27.432 72.7835 28.3921 73.6155 29.2561C74.4475 30.0881 75.4555 30.5041 76.6395 30.5041C77.8235 30.5041 78.7995 30.0721 79.5675 29.208C80.3675 28.344 80.7675 27.4 80.7675 26.376C80.7675 25.32 80.3835 24.3441 79.6155 23.4481C78.8795 22.5521 77.8715 22.104 76.5915 22.104C75.3435 22.104 74.3195 22.5521 73.5195 23.4481C72.7515 24.3441 72.3675 25.32 72.3675 26.376Z" fill="#FF931E"/>
<path fill-rule="evenodd" clip-rule="evenodd" d="M28.2199 16.2961C28.1879 16.6481 28.1719 17.1921 28.1719 17.9281V31.548C28.1719 32.316 28.1399 33.032 28.1719 33.384C28.2359 33.736 28.3561 35.52 28.5801 36C29.0281 36.864 30.3319 39 32.3479 39C34.3959 39 35.6641 36.832 36.0801 36C36.3361 35.52 36.5399 33.736 36.5719 33.384C36.6359 33 36.5719 32.284 36.5719 31.548V18.0241C36.5719 17.4161 36.5559 16.9521 36.5239 16.6321C36.4919 15.7041 36.2039 15.0161 35.6599 14.5681C35.0199 14.0241 33.9319 13.752 32.3959 13.752C30.3479 13.752 29.0999 14.168 28.6519 15.0001C28.4279 15.4801 28.2839 15.9121 28.2199 16.2961Z" fill="#FF931E"/>
<path d="M31.4577 8.8946C31.0975 7.71184 30.1249 6.80092 28.9108 6.56688C28.4088 6.47006 27.8398 6.48155 27.2224 6.69356C24.9174 7.48489 25.6649 10.0045 27.5684 9.76229C29.4719 9.52011 32.2105 11.3659 32.2105 11.3659L31.4577 8.8946Z" fill="url(#paint0_linear)"/>
<path d="M33.4588 9.49992C33.9066 8.59984 34.8405 8.02673 35.8444 8.08177C36.2178 8.10225 36.618 8.20754 37.0216 8.45193C38.6359 9.4295 37.6563 11.2133 36.2556 10.7173C34.8549 10.2212 32.6789 11.0675 32.6789 11.0675L33.4588 9.49992Z" fill="url(#paint1_linear)"/>
<path d="M34.129 4.65189C34.1819 5.8703 33.4288 11.313 32.2104 11.3659C30.992 11.4189 29.7698 6.06187 29.7168 4.84353C29.6639 3.62519 30.6087 2.59459 31.8271 2.54166C33.0454 2.48873 34.0761 3.43352 34.129 4.65189Z" fill="url(#paint2_linear)"/>
<path d="M33.3549 6.7649C33.3549 6.7649 33.8983 3.57143 36.2264 3.59066C38.5545 3.60988 38.8468 6.64668 36.8757 7.45453C34.9046 8.26238 32.6965 11.0065 32.6965 11.0065L33.3549 6.7649Z" fill="url(#paint3_linear)"/>
<path d="M32.0801 34.5C32.0801 34.7761 32.3039 35 32.5801 35H34.5801C34.8562 35 35.0801 34.7761 35.0801 34.5V34.5C35.0801 34.2239 34.8562 34 34.5801 34H32.5801C32.3039 34 32.0801 34.2239 32.0801 34.5V34.5Z" fill="#FF5D00"/>
<path d="M30.0801 19.5C30.0801 19.7761 30.3039 20 30.5801 20V20C30.8562 20 31.0801 19.7761 31.0801 19.5V19.5C31.0801 19.2239 30.8562 19 30.5801 19V19C30.3039 19 30.0801 19.2239 30.0801 19.5V19.5Z" fill="#FF5D00"/>
<path d="M33.0801 16.5C33.0801 16.7761 33.3039 17 33.5801 17V17C33.8562 17 34.0801 16.7761 34.0801 16.5V16.5C34.0801 16.2239 33.8562 16 33.5801 16V16C33.3039 16 33.0801 16.2239 33.0801 16.5V16.5Z" fill="#FF5D00"/>
<path d="M33.0801 30.5C33.0801 30.7761 33.3039 31 33.5801 31H36.5801V30H33.5801C33.3039 30 33.0801 30.2239 33.0801 30.5V30.5Z" fill="#FF5D00"/>
<path d="M32.0801 26.5C32.0801 26.7761 32.3039 27 32.5801 27H36.5801V26H32.5801C32.3039 26 32.0801 26.2239 32.0801 26.5V26.5Z" fill="#FF5D00"/>
<path d="M31.0801 22.5C31.0801 22.7761 31.3039 23 31.5801 23H36.5801V22H31.5801C31.3039 22 31.0801 22.2239 31.0801 22.5V22.5Z" fill="#FF5D00"/>
<defs>
<linearGradient id="paint0_linear" x1="28.5073" y1="9.01226" x2="31.1771" y2="8.8963" gradientUnits="userSpaceOnUse">
<stop stop-color="#9EB644"/>
<stop offset="1" stop-color="#738611"/>
</linearGradient>
<linearGradient id="paint1_linear" x1="35.7558" y1="9.94219" x2="33.8232" y2="9.43357" gradientUnits="userSpaceOnUse">
<stop stop-color="#9EB644"/>
<stop offset="1" stop-color="#738611"/>
</linearGradient>
<linearGradient id="paint2_linear" x1="31.6987" y1="6.96831" x2="33.5753" y2="6.88675" gradientUnits="userSpaceOnUse">
<stop stop-color="#9EB644"/>
<stop offset="1" stop-color="#738611"/>
</linearGradient>
<linearGradient id="paint3_linear" x1="33.7603" y1="6.65453" x2="37.3705" y2="8.9456" gradientUnits="userSpaceOnUse">
<stop stop-color="#9EB644"/>
<stop offset="1" stop-color="#738611"/>
</linearGradient>
</defs>
</svg>
