<svg width="143" height="50" viewBox="0 0 143 50" fill="none" xmlns="http://www.w3.org/2000/svg">
<path d="M88.872 16.152C88.648 16.6 88.232 16.92 87.624 17.112C87.016 17.304 86.2 17.4 85.176 17.4C84.184 17.4 83.384 17.304 82.776 17.112C82.168 16.92 81.736 16.584 81.48 16.104C81.256 15.624 81.112 15.208 81.048 14.856C81.016 14.472 81 13.912 81 13.176C81 12.44 81.016 11.896 81.048 11.544C81.112 11.16 81.256 10.744 81.48 10.296C81.928 9.432 83.176 9 85.224 9C87.24 9 88.456 9.432 88.872 10.296C89.128 10.776 89.272 11.208 89.304 11.592C89.368 11.944 89.4 12.488 89.4 13.224C89.4 13.96 89.368 14.52 89.304 14.904C89.272 15.256 89.128 15.672 88.872 16.152Z" fill="#9EB644"/>
<path d="M61.4159 39.096H74.4719C75.5279 39.096 76.2959 39.224 76.7759 39.48C77.2559 39.704 77.5759 40.072 77.7359 40.584C77.8959 41.096 77.9759 41.784 77.9759 42.648C77.9759 43.48 77.8959 44.152 77.7359 44.664C77.5759 45.176 77.3039 45.528 76.9199 45.72C76.3119 46.04 75.4799 46.2 74.4239 46.2H57.1439C54.9039 46.2 53.5919 45.592 53.2079 44.376C53.0159 43.864 52.9199 43.048 52.9199 41.928V15.24C52.9199 14.504 52.9359 13.96 52.9679 13.608C53.0319 13.224 53.1919 12.792 53.4479 12.312C53.8959 11.448 55.1439 11.016 57.1919 11.016C59.4319 11.016 60.7599 11.608 61.1759 12.792C61.3359 13.336 61.4159 14.168 61.4159 15.288V39.096Z" fill="#FF931E"/>
<path d="M108.206 33.528L114.59 38.808C115.39 39.48 115.886 39.992 116.078 40.344C116.302 40.696 116.414 41.032 116.414 41.352C116.414 42.12 115.918 43.16 114.926 44.472C113.838 45.816 112.878 46.488 112.046 46.488C111.342 46.488 110.366 46.024 109.118 45.096L108.638 44.76C107.902 44.152 106.766 43.096 105.23 41.592C103.694 40.056 102.526 38.968 101.726 38.328V42.024C101.726 42.76 101.694 43.32 101.63 43.704C101.598 44.056 101.454 44.472 101.198 44.952C100.782 45.784 99.5502 46.2 97.5022 46.2C95.4862 46.2 94.2542 45.768 93.8062 44.904C93.5822 44.424 93.4382 44.008 93.3742 43.656C93.3422 43.272 93.3262 42.712 93.3262 41.976V13.224C93.3262 12.488 93.3422 11.944 93.3742 11.592C93.4382 11.208 93.5822 10.776 93.8062 10.296C94.2542 9.432 95.5022 9 97.5502 9C99.0862 9 100.174 9.272 100.814 9.816C101.358 10.264 101.646 10.968 101.678 11.928C101.71 12.216 101.726 12.664 101.726 13.272V28.488C102.302 28.008 103.166 27.192 104.318 26.04C105.502 24.888 106.382 24.072 106.958 23.592L107.534 23.208C108.654 22.344 109.614 21.912 110.414 21.912C111.214 21.912 112.126 22.568 113.15 23.88C114.206 25.16 114.734 26.168 114.734 26.904C114.734 27.64 114.142 28.504 112.958 29.496L108.206 33.528Z" fill="#FF931E"/>
<path d="M134.023 23.592C134.215 21.8 135.479 20.904 137.815 20.904C139.063 20.904 139.991 21 140.599 21.192C141.207 21.384 141.623 21.72 141.847 22.2C142.103 22.68 142.247 23.112 142.279 23.496C142.343 23.848 142.375 24.392 142.375 25.128V41.928C142.375 42.664 142.343 43.224 142.279 43.608C142.247 43.96 142.119 44.376 141.895 44.856C141.447 45.688 140.343 46.104 138.583 46.104C136.855 46.104 135.687 45.896 135.079 45.48C134.503 45.032 134.167 44.392 134.071 43.56C132.887 45.256 130.903 46.104 128.119 46.104C125.367 46.104 122.807 44.84 120.439 42.312C118.071 39.784 116.887 36.856 116.887 33.528C116.887 30.168 118.071 27.24 120.439 24.744C122.839 22.216 125.463 20.952 128.311 20.952C129.399 20.952 130.391 21.144 131.287 21.528C132.183 21.912 132.807 22.28 133.159 22.632C133.511 22.952 133.799 23.272 134.023 23.592ZM125.287 33.576C125.287 34.632 125.703 35.592 126.535 36.456C127.367 37.288 128.375 37.704 129.559 37.704C130.743 37.704 131.719 37.272 132.487 36.408C133.287 35.544 133.687 34.6 133.687 33.576C133.687 32.52 133.303 31.544 132.535 30.648C131.799 29.752 130.791 29.304 129.511 29.304C128.263 29.304 127.239 29.752 126.439 30.648C125.671 31.544 125.287 32.52 125.287 33.576Z" fill="#FF931E"/>
<path fill-rule="evenodd" clip-rule="evenodd" d="M81.1398 23.496C81.1078 23.848 81.0918 24.392 81.0918 25.128V41.976C81.0918 42.744 81.1078 43.304 81.1398 43.656C81.2038 44.008 81.3478 44.424 81.5718 44.904C82.0198 45.768 83.2518 46.2 85.2678 46.2C87.3158 46.2 88.5478 45.784 88.9638 44.952C89.2198 44.472 89.3638 44.056 89.3958 43.704C89.4598 43.32 89.4918 42.76 89.4918 42.024V25.224C89.4918 24.616 89.4758 24.152 89.4438 23.832C89.4118 22.904 89.1238 22.216 88.5798 21.768C87.9398 21.224 86.8518 20.952 85.3158 20.952C83.2678 20.952 82.0198 21.368 81.5718 22.2C81.3478 22.68 81.2038 23.112 81.1398 23.496Z" fill="#FF931E"/>
<g clip-path="url(#clip0)">
<path d="M34.5228 30.1447C29.8674 34.8002 5.46039 51.6592 0.804829 47.0037C-3.85063 42.3482 13.0083 17.9411 17.6638 13.2857C22.3192 8.6302 29.8673 8.6302 34.5227 13.2857C39.1782 17.9411 39.1783 25.4893 34.5228 30.1447Z" fill="url(#paint0_linear)"/>
<path d="M30.6989 31.6624C30.5107 31.6624 30.3225 31.5907 30.179 31.4471L24.8318 26.0999C24.5447 25.8127 24.5447 25.3472 24.8318 25.06C25.1189 24.773 25.5845 24.773 25.8716 25.06L31.2188 30.4072C31.5059 30.6944 31.5059 31.1599 31.2188 31.4471C31.0752 31.5907 30.8871 31.6624 30.6989 31.6624Z" fill="#FF5D00"/>
<path d="M26.3265 34.9534C26.1383 34.9534 25.9501 34.8816 25.8066 34.7381L20.8093 29.7408C20.5222 29.4536 20.5222 28.9881 20.8093 28.7009C21.0964 28.4138 21.5621 28.4138 21.8492 28.7009L26.8464 33.6981C27.1335 33.9853 27.1335 34.4509 26.8464 34.7381C26.7029 34.8816 26.5147 34.9534 26.3265 34.9534Z" fill="#FF5D00"/>
<path d="M21.7711 38.0612C21.5829 38.0612 21.3948 37.9894 21.2512 37.8459L16.7214 33.3161C16.4343 33.0289 16.4343 32.5634 16.7214 32.2762C17.0085 31.9892 17.4742 31.9892 17.7613 32.2762L22.291 36.8059C22.5782 37.0932 22.5782 37.5587 22.291 37.8459C22.1475 37.9893 21.9593 38.0612 21.7711 38.0612Z" fill="#FF5D00"/>
<path d="M17.048 41.0013C16.8599 41.0013 16.6717 40.9295 16.5281 40.786L12.5757 36.8335C12.2886 36.5463 12.2886 36.0808 12.5757 35.7936C12.8628 35.5065 13.3284 35.5065 13.6155 35.7936L17.568 39.746C17.8551 40.0332 17.8551 40.4988 17.568 40.786C17.4244 40.9295 17.2363 41.0013 17.048 41.0013Z" fill="#FF5D00"/>
<path d="M12.1115 43.7277C11.9233 43.7277 11.7352 43.6559 11.5916 43.5123L8.35254 40.2734C8.06543 39.9862 8.06543 39.5207 8.35254 39.2334C8.63965 38.9464 9.10527 38.9464 9.39238 39.2334L12.6314 42.4724C12.9186 42.7596 12.9186 43.2251 12.6314 43.5123C12.4878 43.6559 12.2996 43.7277 12.1115 43.7277Z" fill="#FF5D00"/>
<path d="M6.80849 46.0862C6.62031 46.0862 6.43212 46.0145 6.28857 45.8709L4.00146 43.5839C3.71436 43.2967 3.71436 42.8312 4.00146 42.5439C4.28857 42.2568 4.7542 42.2568 5.04131 42.5439L7.32831 44.831C7.61542 45.1182 7.61542 45.5837 7.32831 45.8709C7.18486 46.0145 6.99658 46.0862 6.80849 46.0862Z" fill="#FF5D00"/>
<path d="M19.3382 18.9687C19.995 18.9687 20.5274 18.4363 20.5274 17.7795C20.5274 17.1227 19.995 16.5902 19.3382 16.5902C18.6814 16.5902 18.1489 17.1227 18.1489 17.7795C18.1489 18.4363 18.6814 18.9687 19.3382 18.9687Z" fill="#FF5D00"/>
<path d="M20.9069 19.9432C21.2356 19.9432 21.502 19.6767 21.502 19.348C21.502 19.0194 21.2356 18.7529 20.9069 18.7529C20.5782 18.7529 20.3118 19.0194 20.3118 19.348C20.3118 19.6767 20.5782 19.9432 20.9069 19.9432Z" fill="#FF5D00"/>
<path d="M13.1706 26.706C13.4992 26.706 13.7657 26.4395 13.7657 26.1109C13.7657 25.7822 13.4992 25.5157 13.1706 25.5157C12.8419 25.5157 12.5754 25.7822 12.5754 26.1109C12.5754 26.4395 12.8419 26.706 13.1706 26.706Z" fill="#FF5D00"/>
<path d="M14.7282 30.6C15.0568 30.6 15.3233 30.3336 15.3233 30.0049C15.3233 29.6762 15.0568 29.4098 14.7282 29.4098C14.3995 29.4098 14.1331 29.6762 14.1331 30.0049C14.1331 30.3336 14.3995 30.6 14.7282 30.6Z" fill="#FF5D00"/>
<path d="M16.2863 27.6579C16.615 27.6579 16.8814 27.3914 16.8814 27.0628C16.8814 26.7341 16.615 26.4677 16.2863 26.4677C15.9576 26.4677 15.6912 26.7341 15.6912 27.0628C15.6912 27.3914 15.9576 27.6579 16.2863 27.6579Z" fill="#FF5D00"/>
<path d="M34.5228 13.2857C33.0935 11.8563 31.3913 10.8666 29.584 10.3149V34.2007C31.8228 32.5343 33.5789 31.0887 34.5228 30.1447C39.1783 25.4892 39.1783 17.9412 34.5228 13.2857Z" fill="url(#paint1_linear)"/>
<path d="M34.456 12.0287C35.5518 9.8084 35.3811 7.14532 33.9299 5.13917C33.3298 4.30948 32.4836 3.5462 31.2918 3.00919C26.8424 1.00392 24.479 5.70635 27.5894 7.9627C30.6998 10.219 32.1664 16.668 32.1664 16.668L34.456 12.0287Z" fill="url(#paint2_linear)"/>
<path d="M36.5469 15.6558C38.4346 14.956 40.5835 15.3999 41.9732 16.8566C42.4902 17.3985 42.9301 18.1009 43.1841 19.011C44.2 22.6511 40.3244 23.9116 38.96 21.2672C37.5957 18.6228 33.2593 16.8746 33.2593 16.8746L36.5469 15.6558Z" fill="url(#paint3_linear)"/>
<path d="M44.172 9.49824C42.5788 11.3492 34.0172 18.2609 32.1663 16.6677C30.3153 15.0744 35.876 5.5795 37.4692 3.72862C39.0624 1.87775 41.8544 1.66886 43.7053 3.26202C45.5562 4.85518 45.7653 7.64736 44.172 9.49824Z" fill="url(#paint4_linear)"/>
<path d="M40.1451 11.5209C40.1451 11.5209 45.3167 7.60471 48.6884 10.8247C52.0602 14.0447 48.3233 18.8781 44.3386 17.3548C40.354 15.8314 33.3687 16.8095 33.3687 16.8095L40.1451 11.5209Z" fill="url(#paint5_linear)"/>
</g>
<defs>
<linearGradient id="paint0_linear" x1="16.4416" y1="28.9233" x2="23.611" y2="36.0927" gradientUnits="userSpaceOnUse">
<stop stop-color="#FF931E"/>
<stop offset="0.569" stop-color="#FF760E"/>
<stop offset="1" stop-color="#FF5D00"/>
</linearGradient>
<linearGradient id="paint1_linear" x1="31.1237" y1="30.2935" x2="34.6569" y2="12.1998" gradientUnits="userSpaceOnUse">
<stop stop-color="#FF931E" stop-opacity="0"/>
<stop offset="1" stop-color="#FF5D00"/>
</linearGradient>
<linearGradient id="paint2_linear" x1="29.9882" y1="8.15527" x2="34.044" y2="11.6464" gradientUnits="userSpaceOnUse">
<stop stop-color="#9EB644"/>
<stop offset="1" stop-color="#738611"/>
</linearGradient>
<linearGradient id="paint3_linear" x1="39.2932" y1="19.4506" x2="37.1697" y2="16.0586" gradientUnits="userSpaceOnUse">
<stop stop-color="#9EB644"/>
<stop offset="1" stop-color="#738611"/>
</linearGradient>
<linearGradient id="paint4_linear" x1="37.4487" y1="9.5472" x2="40.2997" y2="12.0011" gradientUnits="userSpaceOnUse">
<stop stop-color="#9EB644"/>
<stop offset="1" stop-color="#738611"/>
</linearGradient>
<linearGradient id="paint5_linear" x1="40.8881" y1="11.9156" x2="43.0165" y2="20.2096" gradientUnits="userSpaceOnUse">
<stop stop-color="#9EB644"/>
<stop offset="1" stop-color="#738611"/>
</linearGradient>
<clipPath id="clip0">
<rect width="50" height="50" fill="white"/>
</clipPath>
</defs>
</svg>
