<svg width="43" height="34" viewBox="0 0 43 34" fill="none" xmlns="http://www.w3.org/2000/svg">
<path d="M25.5312 0.585938H18.8125C18.1168 0.585938 17.5527 1.16309 17.5527 1.875V7.375C17.5527 8.08691 18.1168 8.66406 18.8125 8.66406H25.5312C26.227 8.66406 26.791 8.08691 26.791 7.375V1.875C26.791 1.16309 26.227 0.585938 25.5312 0.585938Z" fill="#FF5D00"/>
<path d="M38.9688 0.585938H32.25C31.5543 0.585938 30.9902 1.16309 30.9902 1.875V7.375C30.9902 8.08691 31.5543 8.66406 32.25 8.66406H38.9688C39.6645 8.66406 40.2285 8.08691 40.2285 7.375V1.875C40.2285 1.16309 39.6645 0.585938 38.9688 0.585938Z" fill="#FF931E"/>
<path d="M43 7.28906V19.6641C43 20.3756 42.4356 20.9531 41.7402 20.9531H16.125C15.4296 20.9531 14.8652 20.3756 14.8652 19.6641V7.28906C14.8652 6.5775 15.4296 6 16.125 6H41.7402C42.4356 6 43 6.5775 43 7.28906Z" fill="#FF931E"/>
<path d="M43 7.28906V19.6641C43 20.3756 42.4356 20.9531 41.7402 20.9531H28.8906V6H41.7402C42.4356 6 43 6.5775 43 7.28906Z" fill="#FF5D00"/>
<path d="M41.7402 18.4609H28.8906C28.1949 18.4609 27.6309 19.0381 27.6309 19.75V32.125C27.6309 32.8369 28.1949 33.4141 28.8906 33.4141H41.7402C42.436 33.4141 43 32.8369 43 32.125V19.75C43 19.0381 42.436 18.4609 41.7402 18.4609Z" fill="#F4DE48"/>
<path d="M10.75 12.9609H4.03125C3.33552 12.9609 2.77148 13.5381 2.77148 14.25V19.75C2.77148 20.4619 3.33552 21.0391 4.03125 21.0391H10.75C11.4457 21.0391 12.0098 20.4619 12.0098 19.75V14.25C12.0098 13.5381 11.4457 12.9609 10.75 12.9609Z" fill="#53A4DA"/>
<path d="M30.1504 19.75V32.125C30.1504 32.8366 29.586 33.4141 28.8906 33.4141H1.25977C0.564375 33.4141 0 32.8366 0 32.125V19.75C0 19.0384 0.564375 18.4609 1.25977 18.4609H28.8906C29.586 18.4609 30.1504 19.0384 30.1504 19.75Z" fill="#90C1E1"/>
<path d="M30.1504 19.75V32.125C30.1504 32.8366 29.586 33.4141 28.8906 33.4141H14.7812V18.4609H28.8906C29.586 18.4609 30.1504 19.0384 30.1504 19.75Z" fill="#53A4DA"/>
</svg>
