<svg width="43" height="44" viewBox="0 0 43 44" fill="none" xmlns="http://www.w3.org/2000/svg">
<path d="M25.5312 5.58594H18.8125C18.1168 5.58594 17.5527 6.16309 17.5527 6.875V12.375C17.5527 13.0869 18.1168 13.6641 18.8125 13.6641H25.5312C26.227 13.6641 26.791 13.0869 26.791 12.375V6.875C26.791 6.16309 26.227 5.58594 25.5312 5.58594Z" fill="#FF5D00"/>
<path d="M38.9688 5.58594H32.25C31.5543 5.58594 30.9902 6.16309 30.9902 6.875V12.375C30.9902 13.0869 31.5543 13.6641 32.25 13.6641H38.9688C39.6645 13.6641 40.2285 13.0869 40.2285 12.375V6.875C40.2285 6.16309 39.6645 5.58594 38.9688 5.58594Z" fill="#FF931E"/>
<path d="M43 12.2891V24.6641C43 25.3756 42.4356 25.9531 41.7402 25.9531H16.125C15.4296 25.9531 14.8652 25.3756 14.8652 24.6641V12.2891C14.8652 11.5775 15.4296 11 16.125 11H41.7402C42.4356 11 43 11.5775 43 12.2891Z" fill="#FF931E"/>
<path d="M43 12.2891V24.6641C43 25.3756 42.4356 25.9531 41.7402 25.9531H28.8906V11H41.7402C42.4356 11 43 11.5775 43 12.2891Z" fill="#FF5D00"/>
<path d="M41.7402 23.4609H28.8906C28.1949 23.4609 27.6309 24.0381 27.6309 24.75V37.125C27.6309 37.8369 28.1949 38.4141 28.8906 38.4141H41.7402C42.436 38.4141 43 37.8369 43 37.125V24.75C43 24.0381 42.436 23.4609 41.7402 23.4609Z" fill="#F4DE48"/>
<path d="M10.75 17.9609H4.03125C3.33552 17.9609 2.77148 18.5381 2.77148 19.25V24.75C2.77148 25.4619 3.33552 26.0391 4.03125 26.0391H10.75C11.4457 26.0391 12.0098 25.4619 12.0098 24.75V19.25C12.0098 18.5381 11.4457 17.9609 10.75 17.9609Z" fill="#53A4DA"/>
<path d="M30.1504 24.75V37.125C30.1504 37.8366 29.586 38.4141 28.8906 38.4141H1.25977C0.564375 38.4141 0 37.8366 0 37.125V24.75C0 24.0384 0.564375 23.4609 1.25977 23.4609H28.8906C29.586 23.4609 30.1504 24.0384 30.1504 24.75Z" fill="#90C1E1"/>
<path d="M30.1504 24.75V37.125C30.1504 37.8366 29.586 38.4141 28.8906 38.4141H14.7812V23.4609H28.8906C29.586 23.4609 30.1504 24.0384 30.1504 24.75Z" fill="#53A4DA"/>
</svg>
