<svg width="44" height="44" viewBox="0 0 44 44" fill="none" xmlns="http://www.w3.org/2000/svg">
<g clip-path="url(#clip0)">
<path d="M28.0688 36.4138L30.3447 40.9656L21.9999 42.4828L13.655 40.9656L15.9309 36.4138L21.9999 34.8966L28.0688 36.4138Z" fill="#2980BA"/>
<path d="M27.1757 0H42.4816C43.3564 0.0409939 44.034 0.78032 43.9989 1.65531V34.7585C44.034 35.6335 43.3564 36.3728 42.4816 36.4138H1.51611C0.641372 36.3728 -0.0362872 35.6335 -0.0011333 34.7585V1.65531C-0.0362872 0.78032 0.641372 0.0409939 1.51611 0L27.1757 0Z" fill="#F0C419"/>
<path d="M0 22H22V31.8621H0V22Z" fill="#FF931E"/>
<path d="M22 22H44V31.8621H22V22Z" fill="#FF5D00"/>
<path d="M0 3.79309H22V22H0V3.79309Z" fill="#DAEEFB"/>
<path d="M22 3.79309H44V22H22V3.79309Z" fill="#CDD6DC"/>
<path d="M21.9991 0V3.7931H-0.000950378V1.65379C-0.0352478 0.779383 0.64217 0.0409982 1.51629 0H21.9991Z" fill="#FF931E"/>
<path d="M44 1.65379V3.7931H22V0H42.4828C43.3569 0.0409982 44.0343 0.779383 44 1.65379Z" fill="#FF5D00"/>
<path d="M33.3791 40.9655H10.6205C9.78256 40.9655 9.10327 41.6447 9.10327 42.4827C9.10327 43.3206 9.78256 43.9999 10.6205 43.9999H33.3791C34.2171 43.9999 34.8964 43.3206 34.8964 42.4827C34.8964 41.6447 34.2171 40.9655 33.3791 40.9655Z" fill="#3B97D3"/>
<path d="M33.379 18.9656C36.7308 18.9656 39.448 16.2484 39.448 12.8966C39.448 9.54481 36.7308 6.82764 33.379 6.82764C30.0272 6.82764 27.3101 9.54481 27.3101 12.8966C27.3101 16.2484 30.0272 18.9656 33.379 18.9656Z" fill="#3B97D3"/>
<path d="M35.3516 12.4914C35.7491 11.7891 35.7439 10.9286 35.3379 10.2312C34.9319 9.53379 34.1861 9.1044 33.3791 9.10339H32.2412C31.6127 9.10339 31.1033 9.61286 31.1033 10.2413V15.5517C31.1033 16.1801 31.6127 16.6896 32.2412 16.6896H34.1378C35.3879 16.6733 36.3973 15.6638 36.4136 14.4137C36.4127 13.6332 36.0118 12.9077 35.3516 12.4914ZM33.3791 10.6206C33.7981 10.6206 34.1378 10.9603 34.1378 11.3793C34.1222 11.7916 33.7915 12.1223 33.3791 12.1379H32.6205V10.6206H33.3791ZM34.1378 15.1724H32.6205V13.6551H34.1378C34.5567 13.6551 34.8964 13.9948 34.8964 14.4137C34.8762 14.8241 34.5481 15.1522 34.1378 15.1724Z" fill="#ECF0F1"/>
<path d="M11.379 18.9656C14.7308 18.9656 17.448 16.2484 17.448 12.8966C17.448 9.54481 14.7308 6.82764 11.379 6.82764C8.02723 6.82764 5.31006 9.54481 5.31006 12.8966C5.31006 16.2484 8.02723 18.9656 11.379 18.9656Z" fill="#E64C3C"/>
<path d="M14.3767 14.9372L12.8208 10.1579C12.6226 9.52868 12.0391 9.10071 11.3794 9.10071C10.7197 9.10071 10.1362 9.52868 9.93804 10.1579L8.38135 14.9372C8.2694 15.3295 8.4877 15.7401 8.87551 15.8666C9.26331 15.9932 9.68176 15.7904 9.82273 15.4076L10.1474 14.4138H12.6107L12.9338 15.4076C13.0356 15.7198 13.3268 15.9311 13.6553 15.931C13.7351 15.9309 13.8145 15.9184 13.8904 15.8939C14.0818 15.8315 14.2406 15.6957 14.3318 15.5163C14.423 15.3369 14.4392 15.1286 14.3767 14.9372V14.9372ZM10.6405 12.8966L11.3794 10.6283L12.1168 12.8966H10.6405Z" fill="#ECF0F1"/>
<path d="M14.4138 25.0344H8.34488C7.50693 25.0344 6.82764 25.7137 6.82764 26.5517C6.82764 27.3896 7.50693 28.0689 8.34488 28.0689H14.4138C15.2518 28.0689 15.9311 27.3896 15.9311 26.5517C15.9311 25.7137 15.2518 25.0344 14.4138 25.0344Z" fill="#ECF0F1"/>
<path d="M36.4138 25.0344H30.3449C29.5069 25.0344 28.8276 25.7137 28.8276 26.5517C28.8276 27.3896 29.5069 28.0689 30.3449 28.0689H36.4138C37.2518 28.0689 37.9311 27.3896 37.9311 26.5517C37.9311 25.7137 37.2518 25.0344 36.4138 25.0344Z" fill="#ECF0F1"/>
<path d="M43.9998 31.8621V34.76C44.0341 35.6344 43.3567 36.3728 42.4825 36.4138H1.51702C0.642902 36.3728 -0.0345153 35.6344 -0.000217956 34.76V31.8621H43.9998Z" fill="#3B97D3"/>
</g>
<defs>
<clipPath id="clip0">
<rect width="44" height="44" fill="white"/>
</clipPath>
</defs>
</svg>
