<svg width="44" height="44" viewBox="0 0 44 44" fill="none" xmlns="http://www.w3.org/2000/svg">
<g clip-path="url(#clip0)">
<path d="M12.328 44.0001C19.1365 44.0001 24.6559 38.4807 24.6559 31.6721C24.6559 24.8635 19.1365 19.3441 12.328 19.3441C5.51942 19.3441 0 24.8635 0 31.6721C0 38.4807 5.51942 44.0001 12.328 44.0001Z" fill="#FF7C8B"/>
<path d="M18.4167 20.9508C19.4391 22.747 20.0234 24.8249 20.0234 27.0395C20.0234 33.848 14.504 39.3674 7.69548 39.3674C5.48087 39.3674 3.40299 38.7831 1.60673 37.7607C1.83042 38.1537 2.07629 38.5324 2.34046 38.8968L0.0785919 43.074C-0.217376 43.6206 0.379201 44.2172 0.925848 43.9213L5.10223 41.6597C7.13267 43.1314 9.62855 43.9999 12.328 43.9999C19.1366 43.9999 24.656 38.4805 24.656 31.6719C24.6559 27.078 22.1429 23.0715 18.4167 20.9508Z" fill="#FF5368"/>
<path d="M16.7416 36.1113L16.2727 35.6423C16.816 34.7642 17.1306 33.7302 17.1306 32.6238C17.1306 29.4507 14.5491 26.8693 11.376 26.8693C8.20297 26.8693 5.62158 29.4507 5.62158 32.6238C5.62158 35.7969 8.20305 38.3783 11.3761 38.3783C12.4825 38.3783 13.5166 38.0638 14.3947 37.5203L14.8636 37.9893C15.1229 38.2486 15.4628 38.3783 15.8026 38.3783C16.1424 38.3783 16.4823 38.2487 16.7415 37.9893C17.2603 37.4707 17.2603 36.6299 16.7416 36.1113ZM11.3761 35.7223C9.6676 35.7223 8.27756 34.3322 8.27756 32.6237C8.27756 30.9152 9.6676 29.5252 11.3761 29.5252C13.0846 29.5252 14.4747 30.9152 14.4747 32.6237C14.4747 32.9885 14.4108 33.3387 14.2945 33.6641L14.0857 33.4553C13.5672 32.9367 12.7264 32.9367 12.2077 33.4553C11.6891 33.974 11.6891 34.8147 12.2077 35.3333L12.4165 35.5421C12.0911 35.6585 11.741 35.7223 11.3761 35.7223Z" fill="#FFF9EB"/>
<path d="M28.5735 30.8531C37.0933 30.8531 44 23.9464 44 15.4265C44 6.90669 37.0933 0 28.5735 0C20.0537 0 13.147 6.90669 13.147 15.4265C13.147 23.9464 20.0537 30.8531 28.5735 30.8531Z" fill="#4FE267"/>
<path d="M41.072 24.469C42.9135 21.9282 44 18.8044 44 15.4265C44 9.98117 41.1784 5.19506 36.9178 2.44971C38.4679 4.85527 39.3675 7.71956 39.3675 10.7941C39.3675 19.314 32.4608 26.2206 23.941 26.2206C20.8665 26.2206 18.0023 25.3208 15.5967 23.7708C18.342 28.0314 23.1281 30.853 28.5735 30.853C31.9514 30.853 35.0751 29.7665 37.616 27.9251L42.8415 30.7547C43.5255 31.125 44.2721 30.3785 43.9017 29.6945L41.072 24.469Z" fill="#00B04B"/>
<path d="M35.6377 21.5336L30.3258 7.36865C30.1315 6.85028 29.636 6.50696 29.0824 6.50696C28.5288 6.50696 28.0332 6.85028 27.8389 7.36865L22.5271 21.5336C22.2695 22.2202 22.6175 22.9858 23.3042 23.2433C23.9908 23.5009 24.7563 23.1529 25.0139 22.4662L25.2718 21.7786H32.893L33.1509 22.4662C33.3508 22.9994 33.8569 23.3283 34.3945 23.3282C34.5494 23.3282 34.707 23.3009 34.8606 23.2433C35.5472 22.9858 35.8952 22.2203 35.6377 21.5336ZM26.2678 19.1226L29.0824 11.617L31.8971 19.1226H26.2678Z" fill="#FFF9EB"/>
</g>
<defs>
<clipPath id="clip0">
<rect width="44" height="44" fill="white"/>
</clipPath>
</defs>
</svg>
