<svg width="43" height="44" viewBox="0 0 43 44" fill="none" xmlns="http://www.w3.org/2000/svg">
<g clip-path="url(#clip0)">
<path d="M12.4634 6.8671C12.265 6.51536 11.8254 6.39487 11.4817 6.59786L9.62922 7.69219C9.28548 7.89526 9.16773 8.34505 9.36619 8.6968L11.1226 11.8096L11.4168 11.8486L14.1989 10.202V9.94289L12.4634 6.8671Z" fill="#3F6D8E"/>
<path d="M10.9791 7.70739C10.8414 7.46332 10.8253 7.18197 10.9106 6.93567L9.62947 7.69252C9.28572 7.89559 9.16797 8.34539 9.36643 8.69713L11.1228 11.81L11.4171 11.8489L12.8404 11.0064L10.9791 7.70739Z" fill="#365E7D"/>
<path d="M23.0935 3.49219H19.8815L19.7119 3.65959V8.40016L19.8598 8.59387H23.0178L23.2883 8.40016V3.65959L23.0935 3.49219Z" fill="#365E7D"/>
<path d="M21.5001 3.65959L21.6697 3.49219H19.8815L19.7119 3.65959V8.40016L19.8598 8.59387H21.648L21.5001 8.40016V3.65959Z" fill="#294B64"/>
<path d="M33.8257 38.7707C40.6357 31.8023 40.6357 20.5043 33.8257 13.536C27.0157 6.56763 15.9745 6.56762 9.16456 13.536C2.35457 20.5043 2.35457 31.8023 9.16456 38.7707C15.9745 45.739 27.0157 45.739 33.8257 38.7707Z" fill="#90C1E1"/>
<path d="M6.95225 26.1537C6.95225 16.7959 13.9912 9.12137 22.9465 8.3689C22.4695 8.32877 21.9872 8.30737 21.5 8.30737C11.8678 8.30737 4.05933 16.2974 4.05933 26.1537C4.05933 36.0099 11.8678 44 21.5 44C21.9872 44 22.4695 43.9785 22.9465 43.9384C13.9912 43.186 6.95225 35.5114 6.95225 26.1537Z" fill="#75CEF9"/>
<path d="M31.3789 36.2669C36.8375 30.6813 36.8375 21.6253 31.3789 16.0397C25.9202 10.4541 17.07 10.4541 11.6113 16.0397C6.15265 21.6253 6.15265 30.6813 11.6113 36.2669C17.07 41.8526 25.9202 41.8526 31.3789 36.2669Z" fill="#F4FBFF"/>
<path d="M11.4569 26.1537C11.4569 18.9496 16.6887 12.9732 23.4685 11.9912C22.8252 11.8981 22.1682 11.8488 21.5001 11.8488C13.7916 11.8488 7.52026 18.266 7.52026 26.1537C7.52026 34.0415 13.7916 40.4587 21.5001 40.4587C22.1682 40.4587 22.8252 40.4094 23.4685 40.3162C16.6887 39.3343 11.4569 33.3579 11.4569 26.1537V26.1537Z" fill="#E4F6FF"/>
<path d="M25.1644 0H17.8359C17.4068 0 17.0588 0.356039 17.0588 0.79518V2.86438C17.0588 3.30352 17.4068 3.65956 17.8359 3.65956H25.1644C25.5936 3.65956 25.9415 3.30352 25.9415 2.86438V0.79518C25.9414 0.356039 25.5936 0 25.1644 0V0Z" fill="#3F6D8E"/>
<path d="M20.3754 2.86438V0.79518C20.3754 0.356039 20.7233 0 21.1525 0H17.8359C17.4068 0 17.0588 0.356039 17.0588 0.79518V2.86438C17.0588 3.30352 17.4068 3.65956 17.8359 3.65956H21.1525C20.7232 3.65956 20.3754 3.30352 20.3754 2.86438Z" fill="#365E7D"/>
<path d="M21.5 11.8488V23.1935L21.6983 23.4672L23.7531 25.105H31.2154L32.3618 25.8353L32.6287 26.1537H35.48C35.48 18.266 29.2085 11.8488 21.5 11.8488Z" fill="#FF5D00"/>
<path d="M24.2886 12.1349C23.3872 11.9475 22.4547 11.8488 21.5 11.8488V23.1935L21.6983 23.4672L23.7531 25.105H24.2886V12.1349Z" fill="#E65401"/>
<path d="M18.9158 24.8257C18.1105 24.8257 17.5131 24.8257 16.5795 24.8257C15.8628 24.8257 15.2817 25.4203 15.2817 26.1537C15.2817 26.8871 15.8628 27.4817 16.5795 27.4817H18.9158L19.0452 27.2001V25.0606L18.9158 24.8257Z" fill="#FFAA5B"/>
<path d="M31.3312 24.8257C30.4384 24.8257 24.8756 24.8257 24.0846 24.8257L23.8616 25.0015V27.0525L24.0846 27.4816H31.3312C32.048 27.4816 32.629 26.887 32.629 26.1536C32.629 25.4202 32.048 24.8257 31.3312 24.8257Z" fill="#FFBD75"/>
<path d="M16.5797 26.1537C16.0997 26.1537 15.6815 25.8863 15.457 25.4897C15.3463 25.6853 15.282 25.9115 15.282 26.1537C15.282 26.8871 15.8631 27.4817 16.5798 27.4817H18.9161L19.0455 27.2002V25.8722L18.9161 26.1537C18.1107 26.1537 17.5133 26.1537 16.5797 26.1537V26.1537Z" fill="#FF9838"/>
<path d="M31.3312 26.1537H24.0846L23.8616 25.7246V27.0526L24.0846 27.4817H31.3312C32.048 27.4817 32.629 26.8871 32.629 26.1537C32.629 25.9115 32.5647 25.6852 32.454 25.4897C32.2295 25.8863 31.8113 26.1537 31.3312 26.1537V26.1537Z" fill="#FF9838"/>
<path d="M21.5001 11.1847C13.4338 11.1847 6.87134 17.8998 6.87134 26.1536C6.87134 34.4075 13.4337 41.1227 21.5001 41.1227C29.5664 41.1227 36.1289 34.4076 36.1289 26.1537C36.1289 17.8998 29.5664 11.1847 21.5001 11.1847V11.1847ZM28.7175 37.6174L28.4211 37.092C28.2418 36.7745 27.8449 36.6655 27.5347 36.849C27.2244 37.0323 27.118 37.4384 27.2972 37.756L27.5947 38.2834C25.9482 39.1531 24.1032 39.6819 22.1489 39.7782V39.1676C22.1489 38.8009 21.8584 38.5036 21.5001 38.5036C21.1417 38.5036 20.8512 38.8009 20.8512 39.1676V39.7782C18.897 39.6819 17.0519 39.1531 15.4054 38.2834L15.703 37.756C15.8822 37.4383 15.7758 37.0323 15.4655 36.849C15.1551 36.6655 14.7582 36.7745 14.5791 37.092L14.2826 37.6174C12.6885 36.5629 11.3274 35.1702 10.2968 33.539L10.8103 33.2357C11.1206 33.0524 11.227 32.6462 11.0478 32.3287C10.8686 32.011 10.4717 31.9022 10.1614 32.0856L9.64601 32.3901C8.79609 30.7053 8.27925 28.8173 8.18511 26.8177H8.78198C9.14034 26.8177 9.43085 26.5204 9.43085 26.1537C9.43085 25.787 9.14034 25.4898 8.78198 25.4898H8.18511C8.27925 23.4901 8.79609 21.6021 9.64601 19.9173L10.1614 20.2218C10.4717 20.4052 10.8687 20.2964 11.0478 19.9788C11.227 19.6612 11.1207 19.2551 10.8103 19.0718L10.2968 18.7684C11.3274 17.1372 12.6885 15.7445 14.2826 14.69L14.5791 15.2154C14.7583 15.533 15.1551 15.6418 15.4655 15.4585C15.7759 15.2751 15.8822 14.869 15.703 14.5515L15.4054 14.0241C17.0519 13.1544 18.897 12.6255 20.8512 12.5292V13.1399C20.8512 13.5066 21.1417 13.8039 21.5001 13.8039C21.8584 13.8039 22.1489 13.5066 22.1489 13.1399V12.5292C24.1032 12.6255 25.9482 13.1544 27.5947 14.0241L27.2972 14.5515C27.118 14.8691 27.2243 15.2751 27.5347 15.4585C27.845 15.6418 28.2418 15.533 28.4211 15.2154L28.7175 14.69C30.3116 15.7445 31.6728 17.1373 32.7033 18.7684L32.1899 19.0718C31.8794 19.2552 31.7731 19.6612 31.9523 19.9788C32.1317 20.2966 32.5288 20.405 32.8387 20.2218L33.3541 19.9173C34.2041 21.602 34.7209 23.4901 34.815 25.4898H34.2182C33.8598 25.4898 33.5693 25.787 33.5693 26.1537C33.5693 26.5204 33.8598 26.8177 34.2182 26.8177H34.815C34.7209 28.8173 34.2041 30.7053 33.3541 32.3901L32.8387 32.0856C32.5283 31.9022 32.1315 32.011 31.9523 32.3287C31.7731 32.6463 31.8795 33.0524 32.1899 33.2357L32.7033 33.539C31.6728 35.1701 30.3116 36.5629 28.7175 37.6174Z" fill="#365E7D"/>
<path d="M24.183 27.2931C24.795 25.7825 24.0942 24.0503 22.6179 23.4241C21.1416 22.7979 19.4487 23.5149 18.8368 25.0255C18.2248 26.5361 18.9256 28.2684 20.4019 28.8945C21.8782 29.5207 23.5711 28.8037 24.183 27.2931Z" fill="#FFBA7E"/>
<path d="M20.6403 26.1537C20.6403 24.8874 21.4217 23.8047 22.5167 23.3826C22.2003 23.2607 21.8578 23.1935 21.5001 23.1935C19.9049 23.1935 18.6072 24.5215 18.6072 26.1537C18.6072 27.786 19.905 29.114 21.5001 29.114C21.8578 29.114 22.2002 29.0468 22.5167 28.9248C21.4216 28.5027 20.6403 27.4201 20.6403 26.1537V26.1537Z" fill="#FFAA5B"/>
</g>
<defs>
<clipPath id="clip0">
<rect width="43" height="44" fill="white"/>
</clipPath>
</defs>
</svg>
