<svg width="70" height="39" viewBox="0 0 70 39" fill="none" xmlns="http://www.w3.org/2000/svg">
<g clip-path="url(#clip0)">
<path d="M21.2355 1.15988C19.9117 0.700182 14.2027 6.9005 15.3062 11.7497L17.8997 11.884C21.5565 10.2573 22.1139 1.46487 21.2355 1.15988V1.15988Z" fill="#EBE1DC"/>
<path d="M39 18.0513C39.0058 16.9096 37.8175 16.3447 36.7708 16.1889C36.2183 16.1066 35.657 16.0875 35.0999 16.1287C34.8362 16.1482 34.6802 15.8423 34.8521 15.6413C35.4272 14.9693 35.8822 14.3639 36.0721 14.035C36.712 12.9267 36.3322 11.5095 35.2239 10.8696C34.1156 10.2296 32.6984 10.6094 32.0585 11.7177C31.8686 12.0466 31.5719 12.7434 31.2774 13.5774C31.1893 13.8267 30.8464 13.8446 30.7315 13.6065C30.4886 13.1035 30.1914 12.6269 29.8439 12.1895C29.1856 11.361 28.1023 10.6144 27.1164 11.1902C26.8185 11.3643 26.5918 11.6393 26.4518 11.9547C26.112 12.7201 26.2405 13.5411 26.4327 14.3173C26.8473 15.9916 27.5616 17.5912 28.5315 19.0174L31.5141 20.7394C33.2343 20.8663 34.9767 20.6851 36.634 20.2069C37.4022 19.9853 38.1776 19.686 38.6706 19.0091C38.8735 18.7302 38.9983 18.3964 39 18.0513V18.0513Z" fill="#94D4A2"/>
<path d="M37.9045 16.5295C37.9048 16.5429 37.9056 16.5559 37.9056 16.5694C37.9038 16.9145 37.7791 17.2482 37.5759 17.5272C37.0829 18.2042 36.3076 18.5034 35.5393 18.725C33.8821 19.2032 32.1397 19.3844 30.4195 19.2576L27.7407 17.711C27.9814 18.1597 28.2448 18.5962 28.5312 19.0173L31.5138 20.7393C33.2339 20.8662 34.9764 20.685 36.6337 20.2068C37.4019 19.9852 38.1773 19.6859 38.6703 19.009C38.8734 18.7301 38.9982 18.3963 38.9999 18.0512C39.0036 17.3247 38.5236 16.8322 37.9045 16.5295Z" fill="#6DC17D"/>
<path d="M32.8593 25.7553C33.2796 25.3721 33.6495 24.9192 33.949 24.4003C35.5124 21.6925 34.5846 18.23 31.8768 16.6667C29.1689 15.1033 25.7065 16.0311 24.1431 18.7389C23.8435 19.2579 23.6362 19.8046 23.5146 20.3603C20.9476 31.259 20.946 31.2677 20.3003 34.0072C20.1606 34.5995 20.4161 35.2375 20.9703 35.5574C21.5244 35.8772 22.2044 35.7794 22.6476 35.3624C24.6972 33.4335 24.7041 33.4278 32.8593 25.7553Z" fill="#FF931E"/>
<path d="M32.1506 16.8361C32.9447 18.4587 32.8699 20.6113 31.7792 22.5005C31.4692 23.0374 31.0994 23.5134 30.688 23.9235C22.6903 32.1166 22.6838 32.1228 20.6736 34.1825C20.5524 34.3067 20.4157 34.4063 20.2715 34.481C20.3177 34.9153 20.5628 35.3224 20.9701 35.5575C21.5242 35.8774 22.2042 35.7795 22.6474 35.3625C24.697 33.4336 24.7039 33.4279 32.8591 25.7554C33.2795 25.3723 33.6493 24.9193 33.9489 24.4005C35.4582 21.7862 34.6451 18.4691 32.1506 16.8361Z" fill="#E37B0A"/>
<path d="M2.49965 33.1331C3.74259 33.0094 4.64994 31.9016 4.52627 30.6586C4.4026 29.4157 3.29475 28.5084 2.05181 28.632C0.80887 28.7557 -0.0984768 29.8636 0.0251924 31.1065C0.148862 32.3494 1.25672 33.2568 2.49965 33.1331Z" fill="#EBE1DC"/>
<path d="M28.7871 4.54395C27.7427 3.30967 19.1908 6.68537 17.2683 10.3681C13.9719 10.2427 11.1156 12.717 10.8076 16.0415C10.489 19.4813 13.0192 22.5282 16.4591 22.8468C20.0629 23.1806 24.2088 22.9818 25.3238 19.883C26.0122 17.97 24.9885 14.3518 22.1773 12.1641C26.9225 10.4513 29.5692 5.46822 28.7871 4.54395V4.54395Z" fill="#F7F3F1"/>
<path d="M24.5001 17.7178C23.8229 20.9407 19.7439 21.7092 16.1285 21.8754C14.7876 21.937 13.5269 21.5702 12.4761 20.898C13.485 21.9739 14.8752 22.7002 16.4593 22.8469C20.0631 23.1807 24.2091 22.9819 25.3241 19.883C25.9416 18.1668 25.18 15.0788 22.9872 12.8818C24.2331 14.5401 24.7703 16.4322 24.5001 17.7178V17.7178Z" fill="#EBE1DC"/>
<path d="M23.8251 26.6201C18.8433 25.8456 17.2098 21.8008 17.2098 21.8008L12.3548 19.7354C-1.23039 24.6768 2.94368 37.8643 9.86602 37.8643H23.1357C23.5164 37.8643 23.8251 37.5557 23.8251 37.175V36.2644C23.8251 34.4291 22.3373 32.9413 20.5019 32.9413H18.3075C18.4823 32.4646 18.5776 31.9495 18.5776 31.4121C18.5776 30.4833 18.2922 29.6213 17.8048 28.9084C19.1543 29.2917 20.7843 29.7043 22.0975 29.8849C25.428 30.3427 26.0707 26.9692 23.8251 26.6201V26.6201Z" fill="#F7F3F1"/>
<path d="M24.7452 27.0507C24.2577 27.4999 23.6334 27.815 22.9885 27.9879C21.9813 28.2578 20.9196 28.2239 19.8795 28.148C18.2874 28.0317 16.7021 27.8211 15.1348 27.5177C15.6522 28.9917 17.0509 30.1665 18.5304 30.766C18.431 30.0844 18.1771 29.4528 17.8049 28.9083C19.1544 29.2917 20.7845 29.7043 22.0976 29.8849C24.8398 30.2618 25.7593 28.0417 24.7452 27.0507Z" fill="#EBE1DC"/>
<path d="M19.8736 16.2224C19.7993 16.2224 19.7239 16.2082 19.6508 16.1783C19.35 16.0552 19.206 15.7115 19.3292 15.4107L19.5652 14.8344C19.6884 14.5337 20.0317 14.3896 20.3328 14.5128C20.6336 14.636 20.7775 14.9796 20.6544 15.2804L20.4184 15.8567C20.3252 16.0844 20.1055 16.2224 19.8736 16.2224V16.2224Z" fill="#655E67"/>
<path d="M28.1657 7.13051C27.1175 8.92961 25.0256 11.1353 22.1775 12.1641C22.0012 12.0267 21.8181 11.8951 21.6277 11.7698C21.3048 11.5572 21.192 11.1378 21.3719 10.7956C22.5558 8.54281 24.7562 6.95265 28.1657 7.13051V7.13051Z" fill="#DF646E"/>
<path d="M20.502 32.9413H18.3075C18.5085 32.3931 18.6045 31.7943 18.5712 31.1691C18.45 28.8941 16.5836 27.0588 14.307 26.9725C13.7546 26.9516 13.2239 27.0319 12.7312 27.1958C14.6804 27.9716 16.2131 30.5897 16.2131 32.6558C16.2131 32.8708 16.1979 33.0822 16.1683 33.2889C16.1006 33.7637 16.4801 34.185 16.9596 34.185H18.1373C19.9726 34.185 21.4603 35.6728 21.4603 37.5081V37.8642H23.1356C23.5163 37.8642 23.8249 37.5556 23.8249 37.1749V36.2643C23.825 34.4291 22.3372 32.9413 20.502 32.9413V32.9413Z" fill="#EBE1DC"/>
</g>
<g clip-path="url(#clip1)">
<path d="M48.7645 1.15988C50.0883 0.700182 55.7973 6.9005 54.6938 11.7497L52.1003 11.884C48.4435 10.2573 47.8861 1.46487 48.7645 1.15988V1.15988Z" fill="#EBE1DC"/>
<path d="M67.5003 33.1331C66.2574 33.0094 65.3501 31.9016 65.4737 30.6586C65.5974 29.4157 66.7053 28.5084 67.9482 28.632C69.1911 28.7557 70.0985 29.8636 69.9748 31.1065C69.8511 32.3494 68.7433 33.2568 67.5003 33.1331Z" fill="#EBE1DC"/>
<path d="M41.2129 4.54395C42.2573 3.30967 50.8092 6.68537 52.7317 10.3681C56.0281 10.2427 58.8844 12.717 59.1924 16.0415C59.511 19.4813 56.9808 22.5282 53.5409 22.8468C49.9371 23.1806 45.7912 22.9818 44.6762 19.883C43.9878 17.97 45.0115 14.3518 47.8227 12.1641C43.0775 10.4513 40.4308 5.46822 41.2129 4.54395V4.54395Z" fill="#F7F3F1"/>
<path d="M45.4999 17.7178C46.1771 20.9407 50.2561 21.7092 53.8715 21.8754C55.2124 21.937 56.4731 21.5702 57.5239 20.898C56.515 21.9739 55.1248 22.7002 53.5407 22.8469C49.9369 23.1807 45.7909 22.9819 44.6759 19.883C44.0584 18.1668 44.82 15.0788 47.0128 12.8818C45.7669 14.5401 45.2297 16.4322 45.4999 17.7178V17.7178Z" fill="#EBE1DC"/>
<path d="M46.1749 26.6201C51.1567 25.8456 52.7902 21.8008 52.7902 21.8008L57.6452 19.7354C71.2304 24.6768 67.0563 37.8643 60.134 37.8643H46.8643C46.4836 37.8643 46.1749 37.5557 46.1749 37.175V36.2644C46.1749 34.4291 47.6627 32.9413 49.4981 32.9413H51.6925C51.5177 32.4646 51.4224 31.9495 51.4224 31.4121C51.4224 30.4833 51.7078 29.6213 52.1952 28.9084C50.8457 29.2917 49.2157 29.7043 47.9025 29.8849C44.572 30.3427 43.9293 26.9692 46.1749 26.6201V26.6201Z" fill="#F7F3F1"/>
<path d="M45.2548 27.0507C45.7423 27.4999 46.3666 27.815 47.0115 27.9879C48.0187 28.2578 49.0804 28.2239 50.1205 28.148C51.7126 28.0317 53.2979 27.8211 54.8652 27.5177C54.3478 28.9917 52.9491 30.1665 51.4696 30.766C51.569 30.0844 51.8229 29.4528 52.1951 28.9083C50.8456 29.2917 49.2155 29.7043 47.9024 29.8849C45.1602 30.2618 44.2407 28.0417 45.2548 27.0507Z" fill="#EBE1DC"/>
<path d="M50.1264 16.2224C50.2007 16.2224 50.2761 16.2082 50.3492 16.1783C50.65 16.0552 50.794 15.7115 50.6708 15.4107L50.4348 14.8344C50.3116 14.5337 49.9683 14.3896 49.6672 14.5128C49.3664 14.636 49.2225 14.9796 49.3456 15.2804L49.5816 15.8567C49.6748 16.0844 49.8945 16.2224 50.1264 16.2224V16.2224Z" fill="#655E67"/>
<path d="M41.8343 7.13051C42.8825 8.92961 44.9744 11.1353 47.8225 12.1641C47.9988 12.0267 48.1819 11.8951 48.3723 11.7698C48.6952 11.5572 48.808 11.1378 48.6281 10.7956C47.4442 8.54281 45.2438 6.95265 41.8343 7.13051V7.13051Z" fill="#DF646E"/>
<path d="M49.498 32.9413H51.6925C51.4915 32.3931 51.3955 31.7943 51.4288 31.1691C51.55 28.8941 53.4164 27.0588 55.693 26.9725C56.2454 26.9516 56.7761 27.0319 57.2688 27.1958C55.3196 27.9716 53.7869 30.5897 53.7869 32.6558C53.7869 32.8708 53.8021 33.0822 53.8317 33.2889C53.8994 33.7637 53.5199 34.185 53.0404 34.185H51.8627C50.0274 34.185 48.5397 35.6728 48.5397 37.5081V37.8642H46.8644C46.4837 37.8642 46.1751 37.5556 46.1751 37.1749V36.2643C46.175 34.4291 47.6628 32.9413 49.498 32.9413V32.9413Z" fill="#EBE1DC"/>
</g>
<defs>
<clipPath id="clip0">
<rect width="39" height="39" fill="white"/>
</clipPath>
<clipPath id="clip1">
<rect width="39" height="39" fill="white" transform="matrix(-1 0 0 1 70 0)"/>
</clipPath>
</defs>
</svg>
