<svg width="70" height="39" viewBox="0 0 70 39" fill="none" xmlns="http://www.w3.org/2000/svg">
<g clip-path="url(#clip0)">
<path d="M21.2355 1.15988C19.9117 0.700182 14.2027 6.9005 15.3062 11.7497L17.8997 11.884C21.5565 10.2573 22.1139 1.46487 21.2355 1.15988V1.15988Z" fill="#EBE1DC"/>
<path d="M2.49965 33.1331C3.74259 33.0094 4.64994 31.9016 4.52627 30.6586C4.4026 29.4157 3.29475 28.5084 2.05181 28.632C0.80887 28.7557 -0.0984768 29.8636 0.0251924 31.1065C0.148862 32.3494 1.25672 33.2568 2.49965 33.1331Z" fill="#EBE1DC"/>
<path d="M28.7871 4.54395C27.7427 3.30967 19.1908 6.68537 17.2683 10.3681C13.9719 10.2427 11.1156 12.717 10.8076 16.0415C10.489 19.4813 13.0192 22.5282 16.4591 22.8468C20.0629 23.1806 24.2088 22.9818 25.3238 19.883C26.0122 17.97 24.9885 14.3518 22.1773 12.1641C26.9225 10.4513 29.5692 5.46822 28.7871 4.54395V4.54395Z" fill="#F7F3F1"/>
<path d="M24.5001 17.7178C23.8229 20.9407 19.7439 21.7092 16.1285 21.8754C14.7876 21.937 13.5269 21.5702 12.4761 20.898C13.485 21.9739 14.8752 22.7002 16.4593 22.8469C20.0631 23.1807 24.2091 22.9819 25.3241 19.883C25.9416 18.1668 25.18 15.0788 22.9872 12.8818C24.2331 14.5401 24.7703 16.4322 24.5001 17.7178V17.7178Z" fill="#EBE1DC"/>
<path d="M23.8251 26.6201C18.8433 25.8456 17.2098 21.8008 17.2098 21.8008L12.3548 19.7354C-1.23039 24.6768 2.94368 37.8643 9.86602 37.8643H23.1357C23.5164 37.8643 23.8251 37.5557 23.8251 37.175V36.2644C23.8251 34.4291 22.3373 32.9413 20.5019 32.9413H18.3075C18.4823 32.4646 18.5776 31.9495 18.5776 31.4121C18.5776 30.4833 18.2922 29.6213 17.8048 28.9084C19.1543 29.2917 20.7843 29.7043 22.0975 29.8849C25.428 30.3427 26.0707 26.9692 23.8251 26.6201V26.6201Z" fill="#F7F3F1"/>
<path d="M24.7452 27.0507C24.2577 27.4999 23.6334 27.815 22.9885 27.9879C21.9813 28.2578 20.9196 28.2239 19.8795 28.148C18.2874 28.0317 16.7021 27.8211 15.1348 27.5177C15.6522 28.9917 17.0509 30.1665 18.5304 30.766C18.431 30.0844 18.1771 29.4528 17.8049 28.9083C19.1544 29.2917 20.7845 29.7043 22.0976 29.8849C24.8398 30.2618 25.7593 28.0417 24.7452 27.0507Z" fill="#EBE1DC"/>
<path d="M19.8736 16.2224C19.7993 16.2224 19.7239 16.2082 19.6508 16.1783C19.35 16.0552 19.206 15.7115 19.3292 15.4107L19.5652 14.8344C19.6884 14.5337 20.0317 14.3896 20.3328 14.5128C20.6336 14.636 20.7775 14.9796 20.6544 15.2804L20.4184 15.8567C20.3252 16.0844 20.1055 16.2224 19.8736 16.2224V16.2224Z" fill="#655E67"/>
<path d="M28.1657 7.13051C27.1175 8.92961 25.0256 11.1353 22.1775 12.1641C22.0012 12.0267 21.8181 11.8951 21.6277 11.7698C21.3048 11.5572 21.192 11.1378 21.3719 10.7956C22.5558 8.54281 24.7562 6.95265 28.1657 7.13051V7.13051Z" fill="#DF646E"/>
<path d="M20.502 32.9413H18.3075C18.5085 32.3931 18.6045 31.7943 18.5712 31.1691C18.45 28.8941 16.5836 27.0588 14.307 26.9725C13.7546 26.9516 13.2239 27.0319 12.7312 27.1958C14.6804 27.9716 16.2131 30.5897 16.2131 32.6558C16.2131 32.8708 16.1979 33.0822 16.1683 33.2889C16.1006 33.7637 16.4801 34.185 16.9596 34.185H18.1373C19.9726 34.185 21.4603 35.6728 21.4603 37.5081V37.8642H23.1356C23.5163 37.8642 23.8249 37.5556 23.8249 37.1749V36.2643C23.825 34.4291 22.3372 32.9413 20.502 32.9413V32.9413Z" fill="#EBE1DC"/>
</g>
<g clip-path="url(#clip1)">
<path d="M48.7645 1.15988C50.0883 0.700182 55.7973 6.9005 54.6938 11.7497L52.1003 11.884C48.4435 10.2573 47.8861 1.46487 48.7645 1.15988V1.15988Z" fill="#EBE1DC"/>
<path d="M31 18.0513C30.9942 16.9096 32.1825 16.3447 33.2292 16.1889C33.7817 16.1066 34.343 16.0875 34.9001 16.1287C35.1638 16.1482 35.3198 15.8423 35.1479 15.6413C34.5728 14.9693 34.1178 14.3639 33.9279 14.035C33.288 12.9267 33.6678 11.5095 34.7761 10.8696C35.8844 10.2296 37.3016 10.6094 37.9415 11.7177C38.1314 12.0466 38.4281 12.7434 38.7226 13.5774C38.8107 13.8267 39.1536 13.8446 39.2685 13.6065C39.5114 13.1035 39.8086 12.6269 40.1561 12.1895C40.8144 11.361 41.8977 10.6144 42.8836 11.1902C43.1815 11.3643 43.4082 11.6393 43.5482 11.9547C43.888 12.7201 43.7595 13.5411 43.5673 14.3173C43.1527 15.9916 42.4384 17.5912 41.4685 19.0174L38.4859 20.7394C36.7657 20.8663 35.0233 20.6851 33.366 20.2069C32.5978 19.9853 31.8224 19.686 31.3294 19.0091C31.1265 18.7302 31.0017 18.3964 31 18.0513V18.0513Z" fill="#94D4A2"/>
<path d="M32.0955 16.5295C32.0952 16.5429 32.0944 16.5559 32.0944 16.5694C32.0962 16.9145 32.2209 17.2482 32.4241 17.5272C32.9171 18.2042 33.6924 18.5034 34.4607 18.725C36.1179 19.2032 37.8603 19.3844 39.5805 19.2576L42.2593 17.711C42.0186 18.1597 41.7552 18.5962 41.4688 19.0173L38.4862 20.7393C36.7661 20.8662 35.0236 20.685 33.3663 20.2068C32.5981 19.9852 31.8227 19.6859 31.3297 19.009C31.1266 18.7301 31.0018 18.3963 31.0001 18.0512C30.9964 17.3247 31.4764 16.8322 32.0955 16.5295Z" fill="#6DC17D"/>
<path d="M37.1407 25.7553C36.7204 25.3721 36.3505 24.9192 36.051 24.4003C34.4876 21.6925 35.4154 18.23 38.1232 16.6667C40.8311 15.1033 44.2935 16.0311 45.8569 18.7389C46.1565 19.2579 46.3638 19.8046 46.4854 20.3603C49.0524 31.259 49.054 31.2677 49.6997 34.0072C49.8394 34.5995 49.5839 35.2375 49.0297 35.5574C48.4756 35.8772 47.7956 35.7794 47.3524 35.3624C45.3028 33.4335 45.2959 33.4278 37.1407 25.7553Z" fill="#FF931E"/>
<path d="M37.8494 16.8361C37.0553 18.4587 37.1301 20.6113 38.2208 22.5005C38.5308 23.0374 38.9006 23.5134 39.312 23.9235C47.3097 32.1166 47.3162 32.1228 49.3264 34.1825C49.4476 34.3067 49.5843 34.4063 49.7285 34.481C49.6823 34.9153 49.4372 35.3224 49.0299 35.5575C48.4758 35.8774 47.7958 35.7795 47.3526 35.3625C45.303 33.4336 45.2961 33.4279 37.1409 25.7554C36.7205 25.3723 36.3507 24.9193 36.0511 24.4005C34.5418 21.7862 35.3549 18.4691 37.8494 16.8361Z" fill="#E37B0A"/>
<path d="M67.5003 33.1331C66.2574 33.0094 65.3501 31.9016 65.4737 30.6586C65.5974 29.4157 66.7053 28.5084 67.9482 28.632C69.1911 28.7557 70.0985 29.8636 69.9748 31.1065C69.8511 32.3494 68.7433 33.2568 67.5003 33.1331Z" fill="#EBE1DC"/>
<path d="M41.2129 4.54395C42.2573 3.30967 50.8092 6.68537 52.7317 10.3681C56.0281 10.2427 58.8844 12.717 59.1924 16.0415C59.511 19.4813 56.9808 22.5282 53.5409 22.8468C49.9371 23.1806 45.7912 22.9818 44.6762 19.883C43.9878 17.97 45.0115 14.3518 47.8227 12.1641C43.0775 10.4513 40.4308 5.46822 41.2129 4.54395V4.54395Z" fill="#F7F3F1"/>
<path d="M45.4999 17.7178C46.1771 20.9407 50.2561 21.7092 53.8715 21.8754C55.2124 21.937 56.4731 21.5702 57.5239 20.898C56.515 21.9739 55.1248 22.7002 53.5407 22.8469C49.9369 23.1807 45.7909 22.9819 44.6759 19.883C44.0584 18.1668 44.82 15.0788 47.0128 12.8818C45.7669 14.5401 45.2297 16.4322 45.4999 17.7178V17.7178Z" fill="#EBE1DC"/>
<path d="M46.1749 26.6201C51.1567 25.8456 52.7902 21.8008 52.7902 21.8008L57.6452 19.7354C71.2304 24.6768 67.0563 37.8643 60.134 37.8643H46.8643C46.4836 37.8643 46.1749 37.5557 46.1749 37.175V36.2644C46.1749 34.4291 47.6627 32.9413 49.4981 32.9413H51.6925C51.5177 32.4646 51.4224 31.9495 51.4224 31.4121C51.4224 30.4833 51.7078 29.6213 52.1952 28.9084C50.8457 29.2917 49.2157 29.7043 47.9025 29.8849C44.572 30.3427 43.9293 26.9692 46.1749 26.6201V26.6201Z" fill="#F7F3F1"/>
<path d="M45.2548 27.0507C45.7423 27.4999 46.3666 27.815 47.0115 27.9879C48.0187 28.2578 49.0804 28.2239 50.1205 28.148C51.7126 28.0317 53.2979 27.8211 54.8652 27.5177C54.3478 28.9917 52.9491 30.1665 51.4696 30.766C51.569 30.0844 51.8229 29.4528 52.1951 28.9083C50.8456 29.2917 49.2155 29.7043 47.9024 29.8849C45.1602 30.2618 44.2407 28.0417 45.2548 27.0507Z" fill="#EBE1DC"/>
<path d="M50.1264 16.2224C50.2007 16.2224 50.2761 16.2082 50.3492 16.1783C50.65 16.0552 50.794 15.7115 50.6708 15.4107L50.4348 14.8344C50.3116 14.5337 49.9683 14.3896 49.6672 14.5128C49.3664 14.636 49.2225 14.9796 49.3456 15.2804L49.5816 15.8567C49.6748 16.0844 49.8945 16.2224 50.1264 16.2224V16.2224Z" fill="#655E67"/>
<path d="M41.8343 7.13051C42.8825 8.92961 44.9744 11.1353 47.8225 12.1641C47.9988 12.0267 48.1819 11.8951 48.3723 11.7698C48.6952 11.5572 48.808 11.1378 48.6281 10.7956C47.4442 8.54281 45.2438 6.95265 41.8343 7.13051V7.13051Z" fill="#DF646E"/>
<path d="M49.498 32.9413H51.6925C51.4915 32.3931 51.3955 31.7943 51.4288 31.1691C51.55 28.8941 53.4164 27.0588 55.693 26.9725C56.2454 26.9516 56.7761 27.0319 57.2688 27.1958C55.3196 27.9716 53.7869 30.5897 53.7869 32.6558C53.7869 32.8708 53.8021 33.0822 53.8317 33.2889C53.8994 33.7637 53.5199 34.185 53.0404 34.185H51.8627C50.0274 34.185 48.5397 35.6728 48.5397 37.5081V37.8642H46.8644C46.4837 37.8642 46.1751 37.5556 46.1751 37.1749V36.2643C46.175 34.4291 47.6628 32.9413 49.498 32.9413V32.9413Z" fill="#EBE1DC"/>
</g>
<defs>
<clipPath id="clip0">
<rect width="39" height="39" fill="white"/>
</clipPath>
<clipPath id="clip1">
<rect width="39" height="39" fill="white" transform="matrix(-1 0 0 1 70 0)"/>
</clipPath>
</defs>
</svg>
