<svg width="143" height="50" viewBox="0 0 143 50" fill="none" xmlns="http://www.w3.org/2000/svg">
<path d="M61.4159 37.896H74.4719C75.5279 37.896 76.2959 38.024 76.7759 38.28C77.2559 38.504 77.5759 38.872 77.7359 39.384C77.8959 39.896 77.9759 40.584 77.9759 41.448C77.9759 42.28 77.8959 42.9521 77.7359 43.4641C77.5759 43.9761 77.3039 44.3281 76.9199 44.5201C76.3119 44.8401 75.4799 45 74.4239 45H57.1439C54.9039 45 53.5919 44.392 53.2079 43.176C53.0159 42.664 52.9199 41.8481 52.9199 40.7281V14.04C52.9199 13.304 52.9359 12.76 52.9679 12.408C53.0319 12.024 53.1919 11.592 53.4479 11.112C53.8959 10.248 55.1439 9.81605 57.1919 9.81605C59.4319 9.81605 60.7599 10.408 61.1759 11.592C61.3359 12.136 61.4159 12.968 61.4159 14.088V37.896Z" fill="#FF931E"/>
<path d="M108.206 32.328L114.59 37.608C115.39 38.28 115.886 38.7921 116.078 39.1441C116.302 39.4961 116.414 39.832 116.414 40.1521C116.414 40.92 115.918 41.96 114.926 43.272C113.838 44.616 112.878 45.288 112.046 45.288C111.342 45.288 110.366 44.824 109.118 43.896L108.638 43.5601C107.902 42.9521 106.766 41.896 105.23 40.392C103.694 38.856 102.526 37.768 101.726 37.128V40.8241C101.726 41.5601 101.694 42.1201 101.63 42.5041C101.598 42.8561 101.454 43.272 101.198 43.752C100.782 44.584 99.5502 45 97.5022 45C95.4862 45 94.2542 44.568 93.8062 43.704C93.5822 43.224 93.4382 42.8081 93.3742 42.4561C93.3422 42.0721 93.3262 41.5121 93.3262 40.7761V12.024C93.3262 11.288 93.3422 10.744 93.3742 10.392C93.4382 10.008 93.5822 9.57605 93.8062 9.09605C94.2542 8.23205 95.5022 7.80005 97.5502 7.80005C99.0862 7.80005 100.174 8.07205 100.814 8.61605C101.358 9.06405 101.646 9.76805 101.678 10.728C101.71 11.016 101.726 11.464 101.726 12.072V27.288C102.302 26.808 103.166 25.9921 104.318 24.84C105.502 23.688 106.382 22.872 106.958 22.392L107.534 22.008C108.654 21.144 109.614 20.712 110.414 20.712C111.214 20.712 112.126 21.368 113.15 22.68C114.206 23.96 114.734 24.968 114.734 25.704C114.734 26.44 114.142 27.3041 112.958 28.2961L108.206 32.328Z" fill="#FF931E"/>
<path d="M134.023 22.392C134.215 20.6 135.479 19.704 137.815 19.704C139.063 19.704 139.991 19.8 140.599 19.992C141.207 20.184 141.623 20.52 141.847 21.0001C142.103 21.4801 142.247 21.9121 142.279 22.2961C142.343 22.6481 142.375 23.1921 142.375 23.9281V40.7281C142.375 41.4641 142.343 42.0241 142.279 42.4081C142.247 42.7601 142.119 43.176 141.895 43.656C141.447 44.488 140.343 44.904 138.583 44.904C136.855 44.904 135.687 44.696 135.079 44.28C134.503 43.832 134.167 43.1921 134.071 42.3601C132.887 44.0561 130.903 44.904 128.119 44.904C125.367 44.904 122.807 43.64 120.439 41.112C118.071 38.584 116.887 35.656 116.887 32.328C116.887 28.968 118.071 26.04 120.439 23.544C122.839 21.016 125.463 19.752 128.311 19.752C129.399 19.752 130.391 19.944 131.287 20.328C132.183 20.712 132.807 21.08 133.159 21.432C133.511 21.752 133.799 22.072 134.023 22.392ZM125.287 32.376C125.287 33.432 125.703 34.3921 126.535 35.2561C127.367 36.0881 128.375 36.5041 129.559 36.5041C130.743 36.5041 131.719 36.0721 132.487 35.208C133.287 34.344 133.687 33.4 133.687 32.376C133.687 31.32 133.303 30.3441 132.535 29.4481C131.799 28.5521 130.791 28.104 129.511 28.104C128.263 28.104 127.239 28.5521 126.439 29.4481C125.671 30.3441 125.287 31.32 125.287 32.376Z" fill="#FF931E"/>
<path fill-rule="evenodd" clip-rule="evenodd" d="M81.1398 22.2961C81.1078 22.6481 81.0918 23.1921 81.0918 23.9281V37.548C81.0918 38.316 81.0598 39.032 81.0918 39.384C81.1558 39.736 81.276 41.52 81.5 42C81.948 42.864 83.2518 45 85.2678 45C87.3158 45 88.584 42.832 89 42C89.256 41.52 89.4598 39.736 89.4918 39.384C89.5558 39 89.4918 38.284 89.4918 37.548V24.0241C89.4918 23.4161 89.4758 22.9521 89.4438 22.6321C89.4118 21.7041 89.1238 21.0161 88.5798 20.5681C87.9398 20.0241 86.8518 19.752 85.3158 19.752C83.2678 19.752 82.0198 20.168 81.5718 21.0001C81.3478 21.4801 81.2038 21.9121 81.1398 22.2961Z" fill="#FF931E"/>
<path d="M84.3777 14.8946C84.0174 13.7118 83.0448 12.8009 81.8307 12.5669C81.3287 12.4701 80.7597 12.4816 80.1424 12.6936C77.8373 13.4849 78.5848 16.0045 80.4883 15.7623C82.3918 15.5201 85.1304 17.3659 85.1304 17.3659L84.3777 14.8946Z" fill="url(#paint0_linear)"/>
<path d="M86.3787 15.4999C86.8265 14.5998 87.7605 14.0267 88.7643 14.0818C89.1377 14.1022 89.538 14.2075 89.9416 14.4519C91.5558 15.4295 90.5762 17.2133 89.1755 16.7173C87.7748 16.2212 85.5989 17.0675 85.5989 17.0675L86.3787 15.4999Z" fill="url(#paint1_linear)"/>
<path d="M87.0489 10.6519C87.1018 11.8703 86.3487 17.313 85.1303 17.3659C83.9119 17.4189 82.6897 12.0619 82.6368 10.8435C82.5838 9.62519 83.5286 8.59459 84.747 8.54166C85.9653 8.48873 86.996 9.43352 87.0489 10.6519Z" fill="url(#paint2_linear)"/>
<path d="M86.2748 12.7649C86.2748 12.7649 86.8182 9.57143 89.1463 9.59066C91.4744 9.60988 91.7667 12.6467 89.7956 13.4545C87.8245 14.2624 85.6165 17.0065 85.6165 17.0065L86.2748 12.7649Z" fill="url(#paint3_linear)"/>
<path d="M85 40.5C85 40.7761 85.2239 41 85.5 41H87.5C87.7761 41 88 40.7761 88 40.5V40.5C88 40.2239 87.7761 40 87.5 40H85.5C85.2239 40 85 40.2239 85 40.5V40.5Z" fill="#FF5D00"/>
<path d="M83 25.5C83 25.7761 83.2239 26 83.5 26V26C83.7761 26 84 25.7761 84 25.5V25.5C84 25.2239 83.7761 25 83.5 25V25C83.2239 25 83 25.2239 83 25.5V25.5Z" fill="#FF5D00"/>
<path d="M86 22.5C86 22.7761 86.2239 23 86.5 23V23C86.7761 23 87 22.7761 87 22.5V22.5C87 22.2239 86.7761 22 86.5 22V22C86.2239 22 86 22.2239 86 22.5V22.5Z" fill="#FF5D00"/>
<path d="M86 36.5C86 36.7761 86.2239 37 86.5 37H89.5V36H86.5C86.2239 36 86 36.2239 86 36.5V36.5Z" fill="#FF5D00"/>
<path d="M85 32.5C85 32.7761 85.2239 33 85.5 33H89.5V32H85.5C85.2239 32 85 32.2239 85 32.5V32.5Z" fill="#FF5D00"/>
<path d="M84 28.5C84 28.7761 84.2239 29 84.5 29H89.5V28H84.5C84.2239 28 84 28.2239 84 28.5V28.5Z" fill="#FF5D00"/>
<g clip-path="url(#clip0)">
<path d="M34.5228 30.1447C29.8674 34.8002 5.46039 51.6592 0.804829 47.0037C-3.85063 42.3482 13.0083 17.9411 17.6638 13.2857C22.3192 8.6302 29.8673 8.6302 34.5227 13.2857C39.1782 17.9411 39.1783 25.4893 34.5228 30.1447Z" fill="url(#paint4_linear)"/>
<path d="M34.5228 30.1447C29.8674 34.8002 5.46039 51.6592 0.804829 47.0037C-3.85063 42.3482 13.0083 17.9411 17.6638 13.2857C22.3192 8.6302 29.8673 8.6302 34.5227 13.2857C39.1782 17.9411 39.1783 25.4893 34.5228 30.1447Z" fill="url(#paint5_linear)"/>
<path d="M30.6989 31.6624C30.5107 31.6624 30.3225 31.5907 30.179 31.4471L24.8318 26.0999C24.5447 25.8127 24.5447 25.3472 24.8318 25.06C25.1189 24.773 25.5845 24.773 25.8716 25.06L31.2188 30.4072C31.5059 30.6944 31.5059 31.1599 31.2188 31.4471C31.0752 31.5907 30.8871 31.6624 30.6989 31.6624Z" fill="#FF5D00"/>
<path d="M26.3265 34.9534C26.1383 34.9534 25.9501 34.8816 25.8066 34.7381L20.8093 29.7408C20.5222 29.4536 20.5222 28.9881 20.8093 28.7009C21.0964 28.4138 21.5621 28.4138 21.8492 28.7009L26.8464 33.6981C27.1335 33.9853 27.1335 34.4509 26.8464 34.7381C26.7029 34.8816 26.5147 34.9534 26.3265 34.9534Z" fill="#FF5D00"/>
<path d="M21.7711 38.0612C21.5829 38.0612 21.3948 37.9894 21.2512 37.8459L16.7214 33.3161C16.4343 33.0289 16.4343 32.5634 16.7214 32.2762C17.0085 31.9892 17.4742 31.9892 17.7613 32.2762L22.291 36.8059C22.5782 37.0932 22.5782 37.5587 22.291 37.8459C22.1475 37.9893 21.9593 38.0612 21.7711 38.0612Z" fill="#FF5D00"/>
<path d="M17.048 41.0013C16.8599 41.0013 16.6717 40.9295 16.5281 40.786L12.5757 36.8335C12.2886 36.5463 12.2886 36.0808 12.5757 35.7936C12.8628 35.5065 13.3284 35.5065 13.6155 35.7936L17.568 39.746C17.8551 40.0332 17.8551 40.4988 17.568 40.786C17.4244 40.9295 17.2363 41.0013 17.048 41.0013Z" fill="#FF5D00"/>
<path d="M12.1115 43.7277C11.9233 43.7277 11.7352 43.6559 11.5916 43.5123L8.35254 40.2734C8.06543 39.9862 8.06543 39.5207 8.35254 39.2334C8.63965 38.9464 9.10527 38.9464 9.39238 39.2334L12.6314 42.4724C12.9186 42.7596 12.9186 43.2251 12.6314 43.5123C12.4878 43.6559 12.2996 43.7277 12.1115 43.7277Z" fill="#FF5D00"/>
<path d="M6.80849 46.0862C6.62031 46.0862 6.43212 46.0145 6.28857 45.8709L4.00146 43.5839C3.71436 43.2967 3.71436 42.8312 4.00146 42.5439C4.28857 42.2568 4.7542 42.2568 5.04131 42.5439L7.32831 44.831C7.61542 45.1182 7.61542 45.5837 7.32831 45.8709C7.18486 46.0145 6.99658 46.0862 6.80849 46.0862Z" fill="#FF5D00"/>
<path d="M19.3382 18.9687C19.995 18.9687 20.5274 18.4363 20.5274 17.7795C20.5274 17.1227 19.995 16.5902 19.3382 16.5902C18.6814 16.5902 18.1489 17.1227 18.1489 17.7795C18.1489 18.4363 18.6814 18.9687 19.3382 18.9687Z" fill="#FF5D00"/>
<path d="M20.9069 19.9432C21.2356 19.9432 21.502 19.6767 21.502 19.348C21.502 19.0194 21.2356 18.7529 20.9069 18.7529C20.5782 18.7529 20.3118 19.0194 20.3118 19.348C20.3118 19.6767 20.5782 19.9432 20.9069 19.9432Z" fill="#FF5D00"/>
<path d="M13.1706 26.706C13.4992 26.706 13.7657 26.4395 13.7657 26.1109C13.7657 25.7822 13.4992 25.5157 13.1706 25.5157C12.8419 25.5157 12.5754 25.7822 12.5754 26.1109C12.5754 26.4395 12.8419 26.706 13.1706 26.706Z" fill="#FF5D00"/>
<path d="M14.7282 30.6C15.0568 30.6 15.3233 30.3336 15.3233 30.0049C15.3233 29.6762 15.0568 29.4098 14.7282 29.4098C14.3995 29.4098 14.1331 29.6762 14.1331 30.0049C14.1331 30.3336 14.3995 30.6 14.7282 30.6Z" fill="#FF5D00"/>
<path d="M16.2863 27.6579C16.615 27.6579 16.8814 27.3914 16.8814 27.0628C16.8814 26.7341 16.615 26.4677 16.2863 26.4677C15.9576 26.4677 15.6912 26.7341 15.6912 27.0628C15.6912 27.3914 15.9576 27.6579 16.2863 27.6579Z" fill="#FF5D00"/>
<path d="M34.5228 13.2857C33.0935 11.8563 31.3913 10.8666 29.584 10.3149V34.2007C31.8228 32.5343 33.5789 31.0887 34.5228 30.1447C39.1783 25.4892 39.1783 17.9412 34.5228 13.2857Z" fill="url(#paint6_linear)"/>
<path d="M34.456 12.0287C35.5518 9.8084 35.3811 7.14532 33.9299 5.13917C33.3298 4.30948 32.4836 3.5462 31.2918 3.00919C26.8424 1.00392 24.479 5.70635 27.5894 7.9627C30.6998 10.219 32.1664 16.668 32.1664 16.668L34.456 12.0287Z" fill="url(#paint7_linear)"/>
<path d="M36.5469 15.6558C38.4346 14.956 40.5835 15.3999 41.9732 16.8566C42.4902 17.3985 42.9301 18.1009 43.1841 19.011C44.2 22.6511 40.3244 23.9116 38.96 21.2672C37.5957 18.6228 33.2593 16.8746 33.2593 16.8746L36.5469 15.6558Z" fill="url(#paint8_linear)"/>
<path d="M44.172 9.49824C42.5788 11.3492 34.0172 18.2609 32.1663 16.6677C30.3153 15.0744 35.876 5.5795 37.4692 3.72862C39.0624 1.87775 41.8544 1.66886 43.7053 3.26202C45.5562 4.85518 45.7653 7.64736 44.172 9.49824Z" fill="url(#paint9_linear)"/>
<path d="M40.1451 11.5209C40.1451 11.5209 45.3167 7.60471 48.6884 10.8247C52.0602 14.0447 48.3233 18.8781 44.3386 17.3548C40.354 15.8314 33.3687 16.8095 33.3687 16.8095L40.1451 11.5209Z" fill="url(#paint10_linear)"/>
</g>
<defs>
<linearGradient id="paint0_linear" x1="81.4273" y1="15.0123" x2="84.097" y2="14.8963" gradientUnits="userSpaceOnUse">
<stop stop-color="#9EB644"/>
<stop offset="1" stop-color="#738611"/>
</linearGradient>
<linearGradient id="paint1_linear" x1="88.6757" y1="15.9422" x2="86.7431" y2="15.4336" gradientUnits="userSpaceOnUse">
<stop stop-color="#9EB644"/>
<stop offset="1" stop-color="#738611"/>
</linearGradient>
<linearGradient id="paint2_linear" x1="84.6186" y1="12.9683" x2="86.4952" y2="12.8867" gradientUnits="userSpaceOnUse">
<stop stop-color="#9EB644"/>
<stop offset="1" stop-color="#738611"/>
</linearGradient>
<linearGradient id="paint3_linear" x1="86.6802" y1="12.6545" x2="90.2904" y2="14.9456" gradientUnits="userSpaceOnUse">
<stop stop-color="#9EB644"/>
<stop offset="1" stop-color="#738611"/>
</linearGradient>
<linearGradient id="paint4_linear" x1="16.4416" y1="28.9233" x2="23.611" y2="36.0927" gradientUnits="userSpaceOnUse">
<stop stop-color="#FF931E"/>
<stop offset="0.569" stop-color="#FF760E"/>
<stop offset="1" stop-color="#FF5D00"/>
</linearGradient>
<linearGradient id="paint5_linear" x1="16.4416" y1="28.9233" x2="23.611" y2="36.0927" gradientUnits="userSpaceOnUse">
<stop stop-color="#FF931E"/>
<stop offset="0.569" stop-color="#FF760E"/>
<stop offset="1" stop-color="#FF5D00"/>
</linearGradient>
<linearGradient id="paint6_linear" x1="31.1237" y1="30.2935" x2="34.6569" y2="12.1998" gradientUnits="userSpaceOnUse">
<stop stop-color="#FF931E" stop-opacity="0"/>
<stop offset="1" stop-color="#FF5D00"/>
</linearGradient>
<linearGradient id="paint7_linear" x1="29.9882" y1="8.15527" x2="34.044" y2="11.6464" gradientUnits="userSpaceOnUse">
<stop stop-color="#9EB644"/>
<stop offset="1" stop-color="#738611"/>
</linearGradient>
<linearGradient id="paint8_linear" x1="39.2932" y1="19.4506" x2="37.1697" y2="16.0586" gradientUnits="userSpaceOnUse">
<stop stop-color="#9EB644"/>
<stop offset="1" stop-color="#738611"/>
</linearGradient>
<linearGradient id="paint9_linear" x1="37.4487" y1="9.5472" x2="40.2997" y2="12.0011" gradientUnits="userSpaceOnUse">
<stop stop-color="#9EB644"/>
<stop offset="1" stop-color="#738611"/>
</linearGradient>
<linearGradient id="paint10_linear" x1="40.8881" y1="11.9156" x2="43.0165" y2="20.2096" gradientUnits="userSpaceOnUse">
<stop stop-color="#9EB644"/>
<stop offset="1" stop-color="#738611"/>
</linearGradient>
<clipPath id="clip0">
<rect width="50" height="50" fill="white"/>
</clipPath>
</defs>
</svg>
